SplineFontDB: 3.0
FontName: microblok
FullName: microblok Regular
FamilyName: microblok
Weight: Regular
Copyright: derekstrasters
Version: 001
FONDName: Microblok
ItalicAngle: 0
UnderlinePosition: -200
UnderlineWidth: 100
Ascent: 700
Descent: 300
sfntRevision: 0x00010000
LayerCount: 2
Layer: 0 1 "Back"  1
Layer: 1 1 "Fore"  0
XUID: [1021 645 1180089875 9348330]
FSType: 520
OS2Version: 1
OS2_WeightWidthSlopeOnly: 0
OS2_UseTypoMetrics: 1
CreationTime: 1280473793
ModificationTime: 1442732807
PfmFamily: 49
TTFWeight: 500
TTFWidth: 5
LineGap: 0
VLineGap: 0
Panose: 2 6 6 9 0 0 0 0 0 0
OS2TypoAscent: 700
OS2TypoAOffset: 0
OS2TypoDescent: -300
OS2TypoDOffset: 0
OS2TypoLinegap: 0
OS2WinAscent: 700
OS2WinAOffset: 0
OS2WinDescent: 300
OS2WinDOffset: 0
HheadAscent: 700
HheadAOffset: 0
HheadDescent: -300
HheadDOffset: 0
OS2SubXSize: 400
OS2SubYSize: 700
OS2SubXOff: 100
OS2SubYOff: 100
OS2SupXSize: 400
OS2SupYSize: 700
OS2SupXOff: -300
OS2SupYOff: 400
OS2StrikeYSize: 100
OS2StrikeYPos: 200
OS2Vendor: '2ttf'
OS2CodePages: 00000001.00000000
OS2UnicodeRanges: 00000003.00010002.00000000.00000000
MacStyle: 0
MarkAttachClasses: 1
DEI: 91125
ShortTable: cvt  2
  34
  648
EndShort
ShortTable: maxp 16
  1
  0
  296
  56
  14
  0
  0
  2
  0
  1
  1
  0
  64
  0
  0
  0
EndShort
LangName: 1033 "" "" "" "derekstrasters:microblok" "" "" "" "" "" "" "" "" "" "" "" "" "" "Regular" 
GaspTable: 1 65535 1 0
DesignSize: 75 60-100 100 1033 "Regular" 
Encoding: Original
UnicodeInterp: none
NameList: Adobe Glyph List
DisplaySize: 10
AntiAlias: 0
FitToEm: 0
WinInfo: 35 35 5
BeginPrivate: 0
EndPrivate
TeXData: 1 7864320 0 582542 291271 194179 466034 1048576 194179 783286 444596 497025 792723 393216 433062 380633 303038 157286 324010 404750 52429 2506097 1059062 262144
BeginChars: 296 296

StartChar: .notdef
Encoding: 0 -1 0
Width: 500
VWidth: 576
Flags: W
LayerCount: 2
Fore
SplineSet
500 -200 m 1,0,-1
 0 -200 l 1,1,-1
 0 600 l 1,2,-1
 500 600 l 1,3,-1
 500 -200 l 1,0,-1
100 500 m 1,4,-1
 100 -100 l 1,5,-1
 400 -100 l 1,6,-1
 400 500 l 1,7,-1
 100 500 l 1,4,-1
EndSplineSet
EndChar

StartChar: exclam
Encoding: 4 33 4
Width: 500
VWidth: 576
GlyphClass: 2
Flags: W
LayerCount: 2
Fore
SplineSet
300 0 m 1,0,-1
 200 0 l 1,1,-1
 200 100 l 1,2,-1
 300 100 l 1,3,-1
 300 0 l 1,0,-1
300 600 m 1,4,-1
 300 200 l 1,5,-1
 200 200 l 1,6,-1
 200 600 l 1,7,-1
 300 600 l 1,4,-1
EndSplineSet
EndChar

StartChar: quotedbl
Encoding: 5 34 5
Width: 500
VWidth: 576
GlyphClass: 2
Flags: W
LayerCount: 2
Fore
SplineSet
400 600 m 1,0,-1
 400 400 l 1,1,-1
 300 400 l 1,2,-1
 300 600 l 1,3,-1
 400 600 l 1,0,-1
200 600 m 1,4,-1
 200 400 l 1,5,-1
 100 400 l 1,6,-1
 100 600 l 1,7,-1
 200 600 l 1,4,-1
EndSplineSet
EndChar

StartChar: numbersign
Encoding: 6 35 6
Width: 500
VWidth: 576
GlyphClass: 2
Flags: W
LayerCount: 2
Fore
SplineSet
300 200 m 1,0,-1
 300 300 l 1,1,-1
 200 300 l 1,2,-1
 200 200 l 1,3,-1
 300 200 l 1,0,-1
0 200 m 1,4,-1
 100 200 l 1,5,-1
 100 300 l 1,6,-1
 0 300 l 1,7,-1
 0 400 l 1,8,-1
 100 400 l 1,9,-1
 100 500 l 1,10,-1
 200 500 l 1,11,-1
 200 400 l 1,12,-1
 300 400 l 1,13,-1
 300 500 l 1,14,-1
 400 500 l 1,15,-1
 400 0 l 1,16,-1
 300 0 l 1,17,-1
 300 100 l 1,18,-1
 200 100 l 1,19,-1
 200 0 l 1,20,-1
 100 0 l 1,21,-1
 100 100 l 1,22,-1
 0 100 l 1,23,-1
 0 200 l 1,4,-1
EndSplineSet
EndChar

StartChar: dollar
Encoding: 7 36 7
Width: 500
VWidth: 576
GlyphClass: 2
Flags: W
LayerCount: 2
Fore
SplineSet
300 600 m 1,0,-1
 300 500 l 1,1,-1
 400 500 l 1,2,-1
 400 400 l 1,3,-1
 300 400 l 1,4,-1
 300 300 l 1,5,-1
 400 300 l 1,6,-1
 400 0 l 1,7,-1
 300 0 l 1,8,-1
 300 -100 l 1,9,-1
 200 -100 l 1,10,-1
 200 0 l 1,11,-1
 100 0 l 1,12,-1
 100 100 l 1,13,-1
 200 100 l 1,14,-1
 200 200 l 1,15,-1
 100 200 l 1,16,-1
 100 500 l 1,17,-1
 200 500 l 1,18,-1
 200 600 l 1,19,-1
 300 600 l 1,0,-1
EndSplineSet
EndChar

StartChar: percent
Encoding: 8 37 8
Width: 500
VWidth: 576
GlyphClass: 2
Flags: W
LayerCount: 2
Fore
SplineSet
0 500 m 1,0,-1
 200 500 l 1,1,-1
 200 300 l 1,2,-1
 0 300 l 1,3,-1
 0 500 l 1,0,-1
100 100 m 1,4,-1
 100 200 l 1,5,-1
 200 200 l 1,6,-1
 200 300 l 1,7,-1
 300 300 l 1,8,-1
 300 500 l 1,9,-1
 400 500 l 1,10,-1
 400 300 l 1,11,-1
 300 300 l 1,12,-1
 300 200 l 1,13,-1
 200 200 l 1,14,-1
 200 100 l 1,15,-1
 100 100 l 1,4,-1
100 100 m 1,16,-1
 100 -100 l 1,17,-1
 0 -100 l 1,18,-1
 0 100 l 1,19,-1
 100 100 l 1,16,-1
200 100 m 1,20,-1
 400 100 l 1,21,-1
 400 -100 l 1,22,-1
 200 -100 l 1,23,-1
 200 100 l 1,20,-1
EndSplineSet
EndChar

StartChar: ampersand
Encoding: 9 38 9
Width: 500
VWidth: 576
GlyphClass: 2
Flags: W
LayerCount: 2
Fore
SplineSet
200 500 m 1,0,-1
 100 500 l 1,1,-1
 100 600 l 1,2,-1
 200 600 l 1,3,-1
 200 500 l 1,0,-1
200 500 m 1,4,-1
 300 500 l 1,5,-1
 300 400 l 1,6,-1
 200 400 l 1,7,-1
 200 500 l 1,4,-1
100 500 m 1,8,-1
 100 400 l 1,9,-1
 0 400 l 1,10,-1
 0 500 l 1,11,-1
 100 500 l 1,8,-1
200 400 m 1,12,-1
 200 300 l 1,13,-1
 400 300 l 1,14,-1
 400 -100 l 1,15,-1
 300 -100 l 1,16,-1
 300 0 l 1,17,-1
 200 0 l 1,18,-1
 200 -100 l 1,19,-1
 100 -100 l 1,20,-1
 100 0 l 1,21,-1
 0 0 l 1,22,-1
 0 200 l 1,23,-1
 100 200 l 1,24,-1
 100 400 l 1,25,-1
 200 400 l 1,12,-1
100 200 m 1,26,-1
 100 0 l 1,27,-1
 200 0 l 1,28,-1
 200 200 l 1,29,-1
 100 200 l 1,26,-1
EndSplineSet
EndChar

StartChar: quotesingle
Encoding: 10 39 10
Width: 500
VWidth: 576
GlyphClass: 2
Flags: W
LayerCount: 2
Fore
SplineSet
300 600 m 1,0,-1
 300 400 l 1,1,-1
 200 400 l 1,2,-1
 200 600 l 1,3,-1
 300 600 l 1,0,-1
EndSplineSet
EndChar

StartChar: parenleft
Encoding: 11 40 11
Width: 500
VWidth: 576
GlyphClass: 2
Flags: W
LayerCount: 2
Fore
SplineSet
400 -200 m 1,0,-1
 200 -200 l 1,1,-1
 200 -100 l 1,2,-1
 100 -100 l 1,3,-1
 100 500 l 1,4,-1
 200 500 l 1,5,-1
 200 600 l 1,6,-1
 400 600 l 1,7,-1
 400 500 l 1,8,-1
 300 500 l 1,9,-1
 300 400 l 1,10,-1
 200 400 l 1,11,-1
 200 0 l 1,12,-1
 300 0 l 1,13,-1
 300 -100 l 1,14,-1
 400 -100 l 1,15,-1
 400 -200 l 1,0,-1
EndSplineSet
EndChar

StartChar: parenright
Encoding: 12 41 12
Width: 500
VWidth: 576
GlyphClass: 2
Flags: W
LayerCount: 2
Fore
SplineSet
300 -200 m 1,0,-1
 100 -200 l 1,1,-1
 100 -100 l 1,2,-1
 200 -100 l 1,3,-1
 200 0 l 1,4,-1
 300 0 l 1,5,-1
 300 400 l 1,6,-1
 200 400 l 1,7,-1
 200 500 l 1,8,-1
 100 500 l 1,9,-1
 100 600 l 1,10,-1
 300 600 l 1,11,-1
 300 500 l 1,12,-1
 400 500 l 1,13,-1
 400 -100 l 1,14,-1
 300 -100 l 1,15,-1
 300 -200 l 1,0,-1
EndSplineSet
EndChar

StartChar: asterisk
Encoding: 13 42 13
Width: 500
VWidth: 576
GlyphClass: 2
Flags: W
LayerCount: 2
Fore
SplineSet
100 100 m 1,0,-1
 100 200 l 1,1,-1
 200 200 l 1,2,-1
 200 300 l 1,3,-1
 100 300 l 1,4,-1
 100 400 l 1,5,-1
 200 400 l 1,6,-1
 200 500 l 1,7,-1
 300 500 l 1,8,-1
 300 400 l 1,9,-1
 400 400 l 1,10,-1
 400 300 l 1,11,-1
 300 300 l 1,12,-1
 300 200 l 1,13,-1
 200 200 l 1,14,-1
 200 100 l 1,15,-1
 100 100 l 1,0,-1
300 200 m 1,16,-1
 400 200 l 1,17,-1
 400 100 l 1,18,-1
 300 100 l 1,19,-1
 300 200 l 1,16,-1
EndSplineSet
EndChar

StartChar: plus
Encoding: 14 43 14
Width: 500
VWidth: 576
GlyphClass: 2
Flags: W
LayerCount: 2
Fore
SplineSet
200 100 m 1,0,-1
 200 200 l 1,1,-1
 100 200 l 1,2,-1
 100 300 l 1,3,-1
 200 300 l 1,4,-1
 200 400 l 1,5,-1
 300 400 l 1,6,-1
 300 300 l 1,7,-1
 400 300 l 1,8,-1
 400 200 l 1,9,-1
 300 200 l 1,10,-1
 300 100 l 1,11,-1
 200 100 l 1,0,-1
EndSplineSet
EndChar

StartChar: comma
Encoding: 15 44 15
Width: 500
VWidth: 576
GlyphClass: 2
Flags: W
LayerCount: 2
Fore
SplineSet
200 0 m 1,0,-1
 200 100 l 1,1,-1
 300 100 l 1,2,-1
 300 0 l 1,3,-1
 200 0 l 1,0,-1
200 0 m 1,4,-1
 200 -100 l 1,5,-1
 100 -100 l 1,6,-1
 100 0 l 1,7,-1
 200 0 l 1,4,-1
EndSplineSet
EndChar

StartChar: hyphen
Encoding: 16 45 16
Width: 500
VWidth: 576
GlyphClass: 2
Flags: W
LayerCount: 2
Fore
SplineSet
100 300 m 1,0,-1
 400 300 l 1,1,-1
 400 200 l 1,2,-1
 100 200 l 1,3,-1
 100 300 l 1,0,-1
EndSplineSet
EndChar

StartChar: period
Encoding: 17 46 17
Width: 500
VWidth: 576
GlyphClass: 2
Flags: W
LayerCount: 2
Fore
SplineSet
300 0 m 1,0,-1
 200 0 l 1,1,-1
 200 100 l 1,2,-1
 300 100 l 1,3,-1
 300 0 l 1,0,-1
EndSplineSet
EndChar

StartChar: slash
Encoding: 18 47 18
Width: 500
VWidth: 576
GlyphClass: 2
Flags: W
LayerCount: 2
Fore
SplineSet
300 600 m 1,0,-1
 400 600 l 1,1,-1
 400 400 l 1,2,-1
 300 400 l 1,3,-1
 300 200 l 1,4,-1
 200 200 l 1,5,-1
 200 0 l 1,6,-1
 100 0 l 1,7,-1
 100 -100 l 1,8,-1
 0 -100 l 1,9,-1
 0 100 l 1,10,-1
 100 100 l 1,11,-1
 100 300 l 1,12,-1
 200 300 l 1,13,-1
 200 500 l 1,14,-1
 300 500 l 1,15,-1
 300 600 l 1,0,-1
EndSplineSet
EndChar

StartChar: zero
Encoding: 19 48 19
Width: 500
VWidth: 576
GlyphClass: 2
Flags: W
LayerCount: 2
Fore
SplineSet
200 400 m 1,0,-1
 200 500 l 1,1,-1
 100 500 l 1,2,-1
 100 400 l 1,3,-1
 200 400 l 1,0,-1
100 600 m 1,4,-1
 300 600 l 1,5,-1
 300 500 l 1,6,-1
 400 500 l 1,7,-1
 400 200 l 1,8,-1
 300 200 l 1,9,-1
 300 100 l 1,10,-1
 100 100 l 1,11,-1
 100 200 l 1,12,-1
 0 200 l 1,13,-1
 0 500 l 1,14,-1
 100 500 l 1,15,-1
 100 600 l 1,4,-1
300 200 m 1,16,-1
 300 300 l 1,17,-1
 200 300 l 1,18,-1
 200 200 l 1,19,-1
 300 200 l 1,16,-1
EndSplineSet
EndChar

StartChar: one
Encoding: 20 49 20
Width: 500
VWidth: 576
GlyphClass: 2
Flags: W
LayerCount: 2
Fore
SplineSet
200 600 m 1,0,-1
 300 600 l 1,1,-1
 300 200 l 1,2,-1
 400 200 l 1,3,-1
 400 100 l 1,4,-1
 0 100 l 1,5,-1
 0 200 l 1,6,-1
 100 200 l 1,7,-1
 100 400 l 1,8,-1
 0 400 l 1,9,-1
 0 500 l 1,10,-1
 200 500 l 1,11,-1
 200 600 l 1,0,-1
EndSplineSet
EndChar

StartChar: two
Encoding: 21 50 21
Width: 500
VWidth: 576
GlyphClass: 2
Flags: W
LayerCount: 2
Fore
SplineSet
0 300 m 1,0,-1
 100 300 l 1,1,-1
 100 400 l 1,2,-1
 200 400 l 1,3,-1
 200 500 l 1,4,-1
 0 500 l 1,5,-1
 0 600 l 1,6,-1
 300 600 l 1,7,-1
 300 500 l 1,8,-1
 400 500 l 1,9,-1
 400 400 l 1,10,-1
 300 400 l 1,11,-1
 300 300 l 1,12,-1
 200 300 l 1,13,-1
 200 200 l 1,14,-1
 400 200 l 1,15,-1
 400 100 l 1,16,-1
 0 100 l 1,17,-1
 0 300 l 1,0,-1
EndSplineSet
EndChar

StartChar: three
Encoding: 22 51 22
Width: 500
VWidth: 576
GlyphClass: 2
Flags: W
LayerCount: 2
Fore
SplineSet
200 500 m 1,0,-1
 0 500 l 1,1,-1
 0 600 l 1,2,-1
 300 600 l 1,3,-1
 300 500 l 1,4,-1
 400 500 l 1,5,-1
 400 200 l 1,6,-1
 300 200 l 1,7,-1
 300 100 l 1,8,-1
 0 100 l 1,9,-1
 0 200 l 1,10,-1
 200 200 l 1,11,-1
 200 300 l 1,12,-1
 100 300 l 1,13,-1
 100 400 l 1,14,-1
 200 400 l 1,15,-1
 200 500 l 1,0,-1
EndSplineSet
EndChar

StartChar: four
Encoding: 23 52 23
Width: 500
VWidth: 576
GlyphClass: 2
Flags: W
LayerCount: 2
Fore
SplineSet
200 300 m 1,0,-1
 300 300 l 1,1,-1
 300 400 l 1,2,-1
 200 400 l 1,3,-1
 200 300 l 1,0,-1
0 400 m 1,4,-1
 100 400 l 1,5,-1
 100 500 l 1,6,-1
 200 500 l 1,7,-1
 200 600 l 1,8,-1
 400 600 l 1,9,-1
 400 100 l 1,10,-1
 200 100 l 1,11,-1
 200 200 l 1,12,-1
 0 200 l 1,13,-1
 0 400 l 1,4,-1
EndSplineSet
EndChar

StartChar: five
Encoding: 24 53 24
Width: 500
VWidth: 576
GlyphClass: 2
Flags: W
LayerCount: 2
Fore
SplineSet
0 200 m 1,0,-1
 200 200 l 1,1,-1
 200 300 l 1,2,-1
 0 300 l 1,3,-1
 0 600 l 1,4,-1
 400 600 l 1,5,-1
 400 500 l 1,6,-1
 200 500 l 1,7,-1
 200 400 l 1,8,-1
 400 400 l 1,9,-1
 400 200 l 1,10,-1
 300 200 l 1,11,-1
 300 100 l 1,12,-1
 0 100 l 1,13,-1
 0 200 l 1,0,-1
EndSplineSet
EndChar

StartChar: six
Encoding: 25 54 25
Width: 500
VWidth: 576
GlyphClass: 2
Flags: W
LayerCount: 2
Fore
SplineSet
200 200 m 1,0,-1
 300 200 l 1,1,-1
 300 300 l 1,2,-1
 200 300 l 1,3,-1
 200 200 l 1,0,-1
100 600 m 1,4,-1
 400 600 l 1,5,-1
 400 500 l 1,6,-1
 200 500 l 1,7,-1
 200 400 l 1,8,-1
 400 400 l 1,9,-1
 400 100 l 1,10,-1
 0 100 l 1,11,-1
 0 500 l 1,12,-1
 100 500 l 1,13,-1
 100 600 l 1,4,-1
EndSplineSet
EndChar

StartChar: seven
Encoding: 26 55 26
Width: 500
VWidth: 576
GlyphClass: 2
Flags: W
LayerCount: 2
Fore
SplineSet
400 600 m 1,0,-1
 400 300 l 1,1,-1
 300 300 l 1,2,-1
 300 200 l 1,3,-1
 200 200 l 1,4,-1
 200 100 l 1,5,-1
 100 100 l 1,6,-1
 100 400 l 1,7,-1
 200 400 l 1,8,-1
 200 500 l 1,9,-1
 0 500 l 1,10,-1
 0 600 l 1,11,-1
 400 600 l 1,0,-1
EndSplineSet
EndChar

StartChar: eight
Encoding: 27 56 27
Width: 500
VWidth: 576
GlyphClass: 2
Flags: W
LayerCount: 2
Fore
SplineSet
300 200 m 1,0,-1
 300 300 l 1,1,-1
 200 300 l 1,2,-1
 200 200 l 1,3,-1
 300 200 l 1,0,-1
300 400 m 1,4,-1
 300 500 l 1,5,-1
 200 500 l 1,6,-1
 200 400 l 1,7,-1
 300 400 l 1,4,-1
400 600 m 1,8,-1
 400 100 l 1,9,-1
 0 100 l 1,10,-1
 0 600 l 1,11,-1
 400 600 l 1,8,-1
EndSplineSet
EndChar

StartChar: nine
Encoding: 28 57 28
Width: 500
VWidth: 576
GlyphClass: 2
Flags: W
LayerCount: 2
Fore
SplineSet
200 500 m 1,0,-1
 100 500 l 1,1,-1
 100 400 l 1,2,-1
 200 400 l 1,3,-1
 200 500 l 1,0,-1
400 600 m 1,4,-1
 400 200 l 1,5,-1
 300 200 l 1,6,-1
 300 100 l 1,7,-1
 100 100 l 1,8,-1
 100 200 l 1,9,-1
 200 200 l 1,10,-1
 200 300 l 1,11,-1
 0 300 l 1,12,-1
 0 600 l 1,13,-1
 400 600 l 1,4,-1
EndSplineSet
EndChar

StartChar: colon
Encoding: 29 58 29
Width: 500
VWidth: 576
GlyphClass: 2
Flags: W
LayerCount: 2
Fore
SplineSet
300 300 m 1,0,-1
 200 300 l 1,1,-1
 200 400 l 1,2,-1
 300 400 l 1,3,-1
 300 300 l 1,0,-1
300 0 m 1,4,-1
 200 0 l 1,5,-1
 200 100 l 1,6,-1
 300 100 l 1,7,-1
 300 0 l 1,4,-1
EndSplineSet
EndChar

StartChar: semicolon
Encoding: 30 59 30
Width: 500
VWidth: 576
GlyphClass: 2
Flags: W
LayerCount: 2
Fore
SplineSet
300 300 m 1,0,-1
 200 300 l 1,1,-1
 200 400 l 1,2,-1
 300 400 l 1,3,-1
 300 300 l 1,0,-1
300 200 m 1,4,-1
 300 0 l 1,5,-1
 200 0 l 1,6,-1
 200 -100 l 1,7,-1
 100 -100 l 1,8,-1
 100 0 l 1,9,-1
 200 0 l 1,10,-1
 200 100 l 1,11,-1
 100 100 l 1,12,-1
 100 200 l 1,13,-1
 300 200 l 1,4,-1
EndSplineSet
EndChar

StartChar: less
Encoding: 31 60 31
Width: 500
VWidth: 576
GlyphClass: 2
Flags: W
LayerCount: 2
Fore
SplineSet
300 400 m 1,0,-1
 300 500 l 1,1,-1
 400 500 l 1,2,-1
 400 400 l 1,3,-1
 300 400 l 1,0,-1
300 400 m 1,4,-1
 300 300 l 1,5,-1
 200 300 l 1,6,-1
 200 400 l 1,7,-1
 300 400 l 1,4,-1
200 300 m 1,8,-1
 200 200 l 1,9,-1
 100 200 l 1,10,-1
 100 300 l 1,11,-1
 200 300 l 1,8,-1
200 200 m 1,12,-1
 300 200 l 1,13,-1
 300 100 l 1,14,-1
 200 100 l 1,15,-1
 200 200 l 1,12,-1
300 100 m 1,16,-1
 400 100 l 1,17,-1
 400 0 l 1,18,-1
 300 0 l 1,19,-1
 300 100 l 1,16,-1
EndSplineSet
EndChar

StartChar: equal
Encoding: 32 61 32
Width: 500
VWidth: 576
GlyphClass: 2
Flags: W
LayerCount: 2
Fore
SplineSet
0 400 m 1,0,-1
 400 400 l 1,1,-1
 400 300 l 1,2,-1
 0 300 l 1,3,-1
 0 400 l 1,0,-1
0 200 m 1,4,-1
 400 200 l 1,5,-1
 400 100 l 1,6,-1
 0 100 l 1,7,-1
 0 200 l 1,4,-1
EndSplineSet
EndChar

StartChar: greater
Encoding: 33 62 33
Width: 500
VWidth: 576
GlyphClass: 2
Flags: W
LayerCount: 2
Fore
SplineSet
100 0 m 1,0,-1
 100 100 l 1,1,-1
 200 100 l 1,2,-1
 200 200 l 1,3,-1
 300 200 l 1,4,-1
 300 300 l 1,5,-1
 200 300 l 1,6,-1
 200 400 l 1,7,-1
 100 400 l 1,8,-1
 100 500 l 1,9,-1
 200 500 l 1,10,-1
 200 400 l 1,11,-1
 300 400 l 1,12,-1
 300 300 l 1,13,-1
 400 300 l 1,14,-1
 400 200 l 1,15,-1
 300 200 l 1,16,-1
 300 100 l 1,17,-1
 200 100 l 1,18,-1
 200 0 l 1,19,-1
 100 0 l 1,0,-1
EndSplineSet
EndChar

StartChar: question
Encoding: 34 63 34
Width: 500
VWidth: 576
GlyphClass: 2
Flags: W
LayerCount: 2
Fore
SplineSet
200 0 m 1,0,-1
 200 100 l 1,1,-1
 300 100 l 1,2,-1
 300 0 l 1,3,-1
 200 0 l 1,0,-1
200 500 m 1,4,-1
 200 600 l 1,5,-1
 300 600 l 1,6,-1
 300 500 l 1,7,-1
 200 500 l 1,4,-1
200 500 m 1,8,-1
 200 400 l 1,9,-1
 100 400 l 1,10,-1
 100 500 l 1,11,-1
 200 500 l 1,8,-1
300 500 m 1,12,-1
 400 500 l 1,13,-1
 400 300 l 1,14,-1
 300 300 l 1,15,-1
 300 500 l 1,12,-1
300 300 m 1,16,-1
 300 200 l 1,17,-1
 200 200 l 1,18,-1
 200 300 l 1,19,-1
 300 300 l 1,16,-1
EndSplineSet
EndChar

StartChar: at
Encoding: 35 64 35
Width: 500
VWidth: 576
GlyphClass: 2
Flags: W
LayerCount: 2
Fore
SplineSet
100 600 m 1,0,-1
 300 600 l 1,1,-1
 300 500 l 1,2,-1
 400 500 l 1,3,-1
 400 100 l 1,4,-1
 200 100 l 1,5,-1
 200 200 l 1,6,-1
 100 200 l 1,7,-1
 100 0 l 1,8,-1
 0 0 l 1,9,-1
 0 500 l 1,10,-1
 100 500 l 1,11,-1
 100 600 l 1,0,-1
100 0 m 1,12,-1
 400 0 l 1,13,-1
 400 -100 l 1,14,-1
 100 -100 l 1,15,-1
 100 0 l 1,12,-1
200 200 m 1,16,-1
 300 200 l 1,17,-1
 300 300 l 1,18,-1
 200 300 l 1,19,-1
 200 400 l 1,20,-1
 300 400 l 1,21,-1
 300 500 l 1,22,-1
 100 500 l 1,23,-1
 100 300 l 1,24,-1
 200 300 l 1,25,-1
 200 200 l 1,16,-1
EndSplineSet
EndChar

StartChar: A
Encoding: 36 65 36
Width: 500
GlyphClass: 2
Flags: W
LayerCount: 2
Fore
SplineSet
100 300 m 1,0,-1
 300 300 l 1,1,-1
 300 400 l 1,2,-1
 100 400 l 1,3,-1
 100 300 l 1,0,-1
300 0 m 1,4,-1
 300 200 l 1,5,-1
 100 200 l 1,6,-1
 100 0 l 1,7,-1
 0 0 l 1,8,-1
 0 400 l 1,9,-1
 100 400 l 1,10,-1
 100 500 l 1,11,-1
 400 500 l 1,12,-1
 400 0 l 1,13,-1
 300 0 l 1,4,-1
EndSplineSet
EndChar

StartChar: B
Encoding: 37 66 37
Width: 500
GlyphClass: 2
Flags: W
LayerCount: 2
Fore
SplineSet
300 200 m 1,0,-1
 100 200 l 1,1,-1
 100 100 l 1,2,-1
 300 100 l 1,3,-1
 300 200 l 1,0,-1
200 300 m 1,4,-1
 200 400 l 1,5,-1
 100 400 l 1,6,-1
 100 500 l 1,7,-1
 300 500 l 1,8,-1
 300 300 l 1,9,-1
 400 300 l 1,10,-1
 400 100 l 1,11,-1
 300 100 l 1,12,-1
 300 0 l 1,13,-1
 0 0 l 1,14,-1
 0 400 l 1,15,-1
 100 400 l 1,16,-1
 100 300 l 1,17,-1
 200 300 l 1,4,-1
EndSplineSet
EndChar

StartChar: C
Encoding: 38 67 38
Width: 500
GlyphClass: 2
Flags: W
LayerCount: 2
Fore
SplineSet
300 300 m 1,0,-1
 300 400 l 1,1,-1
 100 400 l 1,2,-1
 100 100 l 1,3,-1
 300 100 l 1,4,-1
 300 200 l 1,5,-1
 400 200 l 1,6,-1
 400 100 l 1,7,-1
 300 100 l 1,8,-1
 300 0 l 1,9,-1
 0 0 l 1,10,-1
 0 400 l 1,11,-1
 100 400 l 1,12,-1
 100 500 l 1,13,-1
 400 500 l 1,14,-1
 400 300 l 1,15,-1
 300 300 l 1,0,-1
EndSplineSet
EndChar

StartChar: D
Encoding: 39 68 39
Width: 500
GlyphClass: 2
Flags: W
LayerCount: 2
Fore
SplineSet
200 100 m 1,0,-1
 200 0 l 1,1,-1
 0 0 l 1,2,-1
 0 500 l 1,3,-1
 300 500 l 1,4,-1
 300 400 l 1,5,-1
 400 400 l 1,6,-1
 400 200 l 1,7,-1
 300 200 l 1,8,-1
 300 100 l 1,9,-1
 200 100 l 1,0,-1
200 100 m 1,10,-1
 200 200 l 1,11,-1
 300 200 l 1,12,-1
 300 400 l 1,13,-1
 100 400 l 1,14,-1
 100 100 l 1,15,-1
 200 100 l 1,10,-1
EndSplineSet
EndChar

StartChar: E
Encoding: 40 69 40
Width: 500
GlyphClass: 2
Flags: W
LayerCount: 2
Fore
SplineSet
300 200 m 1,0,-1
 400 200 l 1,1,-1
 400 100 l 1,2,-1
 300 100 l 1,3,-1
 300 200 l 1,0,-1
100 400 m 1,4,-1
 100 500 l 1,5,-1
 400 500 l 1,6,-1
 400 400 l 1,7,-1
 100 400 l 1,4,-1
100 400 m 1,8,-1
 100 300 l 1,9,-1
 200 300 l 1,10,-1
 200 200 l 1,11,-1
 100 200 l 1,12,-1
 100 100 l 1,13,-1
 300 100 l 1,14,-1
 300 0 l 1,15,-1
 0 0 l 1,16,-1
 0 400 l 1,17,-1
 100 400 l 1,8,-1
EndSplineSet
EndChar

StartChar: F
Encoding: 41 70 41
Width: 500
GlyphClass: 2
Flags: W
LayerCount: 2
Fore
SplineSet
100 400 m 1,0,-1
 100 300 l 1,1,-1
 200 300 l 1,2,-1
 200 200 l 1,3,-1
 100 200 l 1,4,-1
 100 0 l 1,5,-1
 0 0 l 1,6,-1
 0 400 l 1,7,-1
 100 400 l 1,0,-1
100 400 m 1,8,-1
 100 500 l 1,9,-1
 400 500 l 1,10,-1
 400 400 l 1,11,-1
 100 400 l 1,8,-1
EndSplineSet
EndChar

StartChar: G
Encoding: 42 71 42
Width: 500
GlyphClass: 2
Flags: W
LayerCount: 2
Fore
SplineSet
300 100 m 1,0,-1
 300 0 l 1,1,-1
 0 0 l 1,2,-1
 0 400 l 1,3,-1
 100 400 l 1,4,-1
 100 500 l 1,5,-1
 400 500 l 1,6,-1
 400 400 l 1,7,-1
 100 400 l 1,8,-1
 100 100 l 1,9,-1
 300 100 l 1,0,-1
300 100 m 1,10,-1
 300 200 l 1,11,-1
 200 200 l 1,12,-1
 200 300 l 1,13,-1
 400 300 l 1,14,-1
 400 100 l 1,15,-1
 300 100 l 1,10,-1
EndSplineSet
EndChar

StartChar: H
Encoding: 43 72 43
Width: 500
GlyphClass: 2
Flags: W
LayerCount: 2
Fore
SplineSet
400 500 m 1,0,-1
 400 0 l 1,1,-1
 200 0 l 1,2,-1
 200 100 l 1,3,-1
 300 100 l 1,4,-1
 300 200 l 1,5,-1
 100 200 l 1,6,-1
 100 0 l 1,7,-1
 0 0 l 1,8,-1
 0 500 l 1,9,-1
 200 500 l 1,10,-1
 200 400 l 1,11,-1
 100 400 l 1,12,-1
 100 300 l 1,13,-1
 300 300 l 1,14,-1
 300 500 l 1,15,-1
 400 500 l 1,0,-1
EndSplineSet
EndChar

StartChar: I
Encoding: 44 73 44
Width: 500
GlyphClass: 2
Flags: W
LayerCount: 2
Fore
SplineSet
0 100 m 1,0,-1
 100 100 l 1,1,-1
 100 400 l 1,2,-1
 0 400 l 1,3,-1
 0 500 l 1,4,-1
 400 500 l 1,5,-1
 400 400 l 1,6,-1
 200 400 l 1,7,-1
 200 100 l 1,8,-1
 400 100 l 1,9,-1
 400 0 l 1,10,-1
 0 0 l 1,11,-1
 0 100 l 1,0,-1
EndSplineSet
EndChar

StartChar: J
Encoding: 45 74 45
Width: 500
GlyphClass: 2
Flags: W
LayerCount: 2
Fore
SplineSet
400 500 m 1,0,-1
 400 100 l 1,1,-1
 300 100 l 1,2,-1
 300 0 l 1,3,-1
 0 0 l 1,4,-1
 0 200 l 1,5,-1
 100 200 l 1,6,-1
 100 100 l 1,7,-1
 300 100 l 1,8,-1
 300 400 l 1,9,-1
 0 400 l 1,10,-1
 0 500 l 1,11,-1
 400 500 l 1,0,-1
EndSplineSet
EndChar

StartChar: K
Encoding: 46 75 46
Width: 500
GlyphClass: 2
Flags: W
LayerCount: 2
Fore
SplineSet
400 500 m 1,0,-1
 400 300 l 1,1,-1
 300 300 l 1,2,-1
 300 500 l 1,3,-1
 400 500 l 1,0,-1
100 500 m 1,4,-1
 100 300 l 1,5,-1
 300 300 l 1,6,-1
 300 100 l 1,7,-1
 400 100 l 1,8,-1
 400 0 l 1,9,-1
 200 0 l 1,10,-1
 200 200 l 1,11,-1
 100 200 l 1,12,-1
 100 0 l 1,13,-1
 0 0 l 1,14,-1
 0 500 l 1,15,-1
 100 500 l 1,4,-1
EndSplineSet
EndChar

StartChar: L
Encoding: 47 76 47
Width: 500
GlyphClass: 2
Flags: W
LayerCount: 2
Fore
SplineSet
100 0 m 1,0,-1
 100 400 l 1,1,-1
 200 400 l 1,2,-1
 200 500 l 1,3,-1
 300 500 l 1,4,-1
 300 400 l 1,5,-1
 200 400 l 1,6,-1
 200 100 l 1,7,-1
 400 100 l 1,8,-1
 400 0 l 1,9,-1
 100 0 l 1,0,-1
EndSplineSet
EndChar

StartChar: M
Encoding: 48 77 48
Width: 500
GlyphClass: 2
Flags: W
LayerCount: 2
Fore
SplineSet
100 400 m 1,0,-1
 100 500 l 1,1,-1
 200 500 l 1,2,-1
 200 400 l 1,3,-1
 300 400 l 1,4,-1
 300 500 l 1,5,-1
 400 500 l 1,6,-1
 400 0 l 1,7,-1
 300 0 l 1,8,-1
 300 200 l 1,9,-1
 100 200 l 1,10,-1
 100 0 l 1,11,-1
 0 0 l 1,12,-1
 0 400 l 1,13,-1
 100 400 l 1,0,-1
EndSplineSet
EndChar

StartChar: N
Encoding: 49 78 49
Width: 500
GlyphClass: 2
Flags: W
LayerCount: 2
Fore
SplineSet
300 100 m 1,0,-1
 200 100 l 1,1,-1
 200 300 l 1,2,-1
 300 300 l 1,3,-1
 300 500 l 1,4,-1
 400 500 l 1,5,-1
 400 0 l 1,6,-1
 300 0 l 1,7,-1
 300 100 l 1,0,-1
200 300 m 1,8,-1
 100 300 l 1,9,-1
 100 0 l 1,10,-1
 0 0 l 1,11,-1
 0 400 l 1,12,-1
 100 400 l 1,13,-1
 100 500 l 1,14,-1
 200 500 l 1,15,-1
 200 300 l 1,8,-1
EndSplineSet
EndChar

StartChar: O
Encoding: 50 79 50
Width: 500
GlyphClass: 2
Flags: W
LayerCount: 2
Fore
SplineSet
100 400 m 1,0,-1
 100 100 l 1,1,-1
 300 100 l 1,2,-1
 300 400 l 1,3,-1
 100 400 l 1,0,-1
100 400 m 1,4,-1
 100 500 l 1,5,-1
 400 500 l 1,6,-1
 400 100 l 1,7,-1
 300 100 l 1,8,-1
 300 0 l 1,9,-1
 0 0 l 1,10,-1
 0 400 l 1,11,-1
 100 400 l 1,4,-1
EndSplineSet
EndChar

StartChar: P
Encoding: 51 80 51
Width: 500
GlyphClass: 2
Flags: W
LayerCount: 2
Fore
SplineSet
100 400 m 1,0,-1
 100 500 l 1,1,-1
 400 500 l 1,2,-1
 400 300 l 1,3,-1
 300 300 l 1,4,-1
 300 200 l 1,5,-1
 100 200 l 1,6,-1
 100 0 l 1,7,-1
 0 0 l 1,8,-1
 0 400 l 1,9,-1
 100 400 l 1,0,-1
100 400 m 1,10,-1
 100 300 l 1,11,-1
 300 300 l 1,12,-1
 300 400 l 1,13,-1
 100 400 l 1,10,-1
EndSplineSet
EndChar

StartChar: Q
Encoding: 52 81 52
Width: 500
GlyphClass: 2
Flags: W
LayerCount: 2
Fore
SplineSet
200 100 m 1,0,-1
 200 200 l 1,1,-1
 300 200 l 1,2,-1
 300 0 l 1,3,-1
 400 0 l 1,4,-1
 400 -100 l 1,5,-1
 200 -100 l 1,6,-1
 200 0 l 1,7,-1
 0 0 l 1,8,-1
 0 400 l 1,9,-1
 100 400 l 1,10,-1
 100 100 l 1,11,-1
 200 100 l 1,0,-1
100 400 m 1,12,-1
 100 500 l 1,13,-1
 400 500 l 1,14,-1
 400 200 l 1,15,-1
 300 200 l 1,16,-1
 300 400 l 1,17,-1
 100 400 l 1,12,-1
EndSplineSet
EndChar

StartChar: R
Encoding: 53 82 53
Width: 500
GlyphClass: 2
Flags: W
LayerCount: 2
Fore
SplineSet
200 100 m 1,0,-1
 200 200 l 1,1,-1
 100 200 l 1,2,-1
 100 0 l 1,3,-1
 0 0 l 1,4,-1
 0 400 l 1,5,-1
 100 400 l 1,6,-1
 100 300 l 1,7,-1
 300 300 l 1,8,-1
 300 100 l 1,9,-1
 200 100 l 1,0,-1
300 100 m 1,10,-1
 400 100 l 1,11,-1
 400 0 l 1,12,-1
 300 0 l 1,13,-1
 300 100 l 1,10,-1
300 300 m 1,14,-1
 300 400 l 1,15,-1
 100 400 l 1,16,-1
 100 500 l 1,17,-1
 400 500 l 1,18,-1
 400 300 l 1,19,-1
 300 300 l 1,14,-1
EndSplineSet
EndChar

StartChar: S
Encoding: 54 83 54
Width: 500
GlyphClass: 2
Flags: W
LayerCount: 2
Fore
SplineSet
100 500 m 1,0,-1
 400 500 l 1,1,-1
 400 400 l 1,2,-1
 100 400 l 1,3,-1
 100 500 l 1,0,-1
300 100 m 1,4,-1
 300 0 l 1,5,-1
 0 0 l 1,6,-1
 0 100 l 1,7,-1
 300 100 l 1,4,-1
300 100 m 1,8,-1
 300 200 l 1,9,-1
 0 200 l 1,10,-1
 0 400 l 1,11,-1
 100 400 l 1,12,-1
 100 300 l 1,13,-1
 400 300 l 1,14,-1
 400 100 l 1,15,-1
 300 100 l 1,8,-1
EndSplineSet
EndChar

StartChar: T
Encoding: 55 84 55
Width: 500
GlyphClass: 2
Flags: W
LayerCount: 2
Fore
SplineSet
100 300 m 1,0,-1
 0 300 l 1,1,-1
 0 400 l 1,2,-1
 100 400 l 1,3,-1
 100 300 l 1,0,-1
100 400 m 1,4,-1
 100 500 l 1,5,-1
 400 500 l 1,6,-1
 400 400 l 1,7,-1
 300 400 l 1,8,-1
 300 0 l 1,9,-1
 200 0 l 1,10,-1
 200 400 l 1,11,-1
 100 400 l 1,4,-1
EndSplineSet
EndChar

StartChar: U
Encoding: 56 85 56
Width: 500
GlyphClass: 2
Flags: W
LayerCount: 2
Fore
SplineSet
100 500 m 1,0,-1
 100 100 l 1,1,-1
 300 100 l 1,2,-1
 300 0 l 1,3,-1
 0 0 l 1,4,-1
 0 500 l 1,5,-1
 100 500 l 1,0,-1
300 100 m 1,6,-1
 300 500 l 1,7,-1
 400 500 l 1,8,-1
 400 100 l 1,9,-1
 300 100 l 1,6,-1
EndSplineSet
EndChar

StartChar: V
Encoding: 57 86 57
Width: 500
GlyphClass: 2
Flags: W
LayerCount: 2
Fore
SplineSet
0 500 m 1,0,-1
 100 500 l 1,1,-1
 100 200 l 1,2,-1
 200 200 l 1,3,-1
 200 100 l 1,4,-1
 100 100 l 1,5,-1
 100 0 l 1,6,-1
 0 0 l 1,7,-1
 0 500 l 1,0,-1
300 300 m 1,8,-1
 300 200 l 1,9,-1
 200 200 l 1,10,-1
 200 300 l 1,11,-1
 300 300 l 1,8,-1
300 300 m 1,12,-1
 300 500 l 1,13,-1
 400 500 l 1,14,-1
 400 300 l 1,15,-1
 300 300 l 1,12,-1
EndSplineSet
EndChar

StartChar: W
Encoding: 58 87 58
Width: 500
GlyphClass: 2
Flags: W
LayerCount: 2
Fore
SplineSet
0 0 m 1,0,-1
 0 500 l 1,1,-1
 100 500 l 1,2,-1
 100 200 l 1,3,-1
 300 200 l 1,4,-1
 300 500 l 1,5,-1
 400 500 l 1,6,-1
 400 100 l 1,7,-1
 300 100 l 1,8,-1
 300 0 l 1,9,-1
 200 0 l 1,10,-1
 200 100 l 1,11,-1
 100 100 l 1,12,-1
 100 0 l 1,13,-1
 0 0 l 1,0,-1
EndSplineSet
EndChar

StartChar: X
Encoding: 59 88 59
Width: 500
GlyphClass: 2
Flags: W
LayerCount: 2
Fore
SplineSet
100 200 m 1,0,-1
 100 0 l 1,1,-1
 0 0 l 1,2,-1
 0 200 l 1,3,-1
 100 200 l 1,0,-1
100 200 m 1,4,-1
 100 300 l 1,5,-1
 0 300 l 1,6,-1
 0 500 l 1,7,-1
 200 500 l 1,8,-1
 200 300 l 1,9,-1
 300 300 l 1,10,-1
 300 500 l 1,11,-1
 400 500 l 1,12,-1
 400 300 l 1,13,-1
 300 300 l 1,14,-1
 300 200 l 1,15,-1
 400 200 l 1,16,-1
 400 0 l 1,17,-1
 200 0 l 1,18,-1
 200 200 l 1,19,-1
 100 200 l 1,4,-1
EndSplineSet
EndChar

StartChar: Y
Encoding: 60 89 60
Width: 500
GlyphClass: 2
Flags: W
LayerCount: 2
Fore
SplineSet
100 0 m 1,0,-1
 100 300 l 1,1,-1
 0 300 l 1,2,-1
 0 500 l 1,3,-1
 100 500 l 1,4,-1
 100 300 l 1,5,-1
 300 300 l 1,6,-1
 300 500 l 1,7,-1
 400 500 l 1,8,-1
 400 300 l 1,9,-1
 300 300 l 1,10,-1
 300 200 l 1,11,-1
 200 200 l 1,12,-1
 200 0 l 1,13,-1
 100 0 l 1,0,-1
EndSplineSet
EndChar

StartChar: Z
Encoding: 61 90 61
Width: 500
GlyphClass: 2
Flags: W
LayerCount: 2
Fore
SplineSet
300 300 m 1,0,-1
 300 400 l 1,1,-1
 100 400 l 1,2,-1
 100 500 l 1,3,-1
 500 500 l 1,4,-1
 500 400 l 1,5,-1
 400 400 l 1,6,-1
 400 300 l 1,7,-1
 300 300 l 1,0,-1
300 300 m 1,8,-1
 300 200 l 1,9,-1
 200 200 l 1,10,-1
 200 100 l 1,11,-1
 400 100 l 1,12,-1
 400 0 l 1,13,-1
 0 0 l 1,14,-1
 0 100 l 1,15,-1
 100 100 l 1,16,-1
 100 200 l 1,17,-1
 200 200 l 1,18,-1
 200 300 l 1,19,-1
 300 300 l 1,8,-1
EndSplineSet
EndChar

StartChar: bracketleft
Encoding: 62 91 62
Width: 500
VWidth: 576
GlyphClass: 2
Flags: W
LayerCount: 2
Fore
SplineSet
100 600 m 1,0,-1
 400 600 l 1,1,-1
 400 500 l 1,2,-1
 200 500 l 1,3,-1
 200 -100 l 1,4,-1
 400 -100 l 1,5,-1
 400 -200 l 1,6,-1
 100 -200 l 1,7,-1
 100 600 l 1,0,-1
EndSplineSet
EndChar

StartChar: backslash
Encoding: 63 92 63
Width: 500
VWidth: 576
GlyphClass: 2
Flags: W
LayerCount: 2
Fore
SplineSet
100 600 m 1,0,-1
 100 500 l 1,1,-1
 200 500 l 1,2,-1
 200 300 l 1,3,-1
 300 300 l 1,4,-1
 300 100 l 1,5,-1
 400 100 l 1,6,-1
 400 -100 l 1,7,-1
 300 -100 l 1,8,-1
 300 0 l 1,9,-1
 200 0 l 1,10,-1
 200 200 l 1,11,-1
 100 200 l 1,12,-1
 100 400 l 1,13,-1
 0 400 l 1,14,-1
 0 600 l 1,15,-1
 100 600 l 1,0,-1
EndSplineSet
EndChar

StartChar: bracketright
Encoding: 64 93 64
Width: 500
VWidth: 576
GlyphClass: 2
Flags: W
LayerCount: 2
Fore
SplineSet
100 600 m 1,0,-1
 400 600 l 1,1,-1
 400 -200 l 1,2,-1
 100 -200 l 1,3,-1
 100 -100 l 1,4,-1
 300 -100 l 1,5,-1
 300 500 l 1,6,-1
 100 500 l 1,7,-1
 100 600 l 1,0,-1
EndSplineSet
EndChar

StartChar: asciicircum
Encoding: 65 94 65
Width: 500
VWidth: 576
GlyphClass: 2
Flags: W
LayerCount: 2
Fore
SplineSet
100 600 m 1,0,-1
 300 600 l 1,1,-1
 300 400 l 1,2,-1
 100 400 l 1,3,-1
 100 600 l 1,0,-1
100 400 m 1,4,-1
 100 300 l 1,5,-1
 0 300 l 1,6,-1
 0 400 l 1,7,-1
 100 400 l 1,4,-1
300 400 m 1,8,-1
 400 400 l 1,9,-1
 400 300 l 1,10,-1
 300 300 l 1,11,-1
 300 400 l 1,8,-1
EndSplineSet
EndChar

StartChar: underscore
Encoding: 66 95 66
Width: 500
VWidth: 576
GlyphClass: 2
Flags: W
LayerCount: 2
Fore
SplineSet
500 -100 m 1,0,-1
 0 -100 l 1,1,-1
 0 0 l 1,2,-1
 500 0 l 1,3,-1
 500 -100 l 1,0,-1
EndSplineSet
EndChar

StartChar: grave
Encoding: 67 96 67
Width: 500
VWidth: 576
GlyphClass: 2
Flags: W
LayerCount: 2
Fore
SplineSet
200 500 m 1,0,-1
 100 500 l 1,1,-1
 100 600 l 1,2,-1
 200 600 l 1,3,-1
 200 500 l 1,0,-1
200 500 m 1,4,-1
 300 500 l 1,5,-1
 300 400 l 1,6,-1
 200 400 l 1,7,-1
 200 500 l 1,4,-1
EndSplineSet
EndChar

StartChar: a
Encoding: 68 97 68
Width: 500
VWidth: 576
GlyphClass: 2
Flags: W
LayerCount: 2
Fore
SplineSet
300 200 m 1,0,-1
 300 300 l 1,1,-1
 100 300 l 1,2,-1
 100 400 l 1,3,-1
 400 400 l 1,4,-1
 400 0 l 1,5,-1
 300 0 l 1,6,-1
 300 100 l 1,7,-1
 200 100 l 1,8,-1
 200 200 l 1,9,-1
 300 200 l 1,0,-1
200 100 m 1,10,-1
 200 0 l 1,11,-1
 0 0 l 1,12,-1
 0 300 l 1,13,-1
 100 300 l 1,14,-1
 100 100 l 1,15,-1
 200 100 l 1,10,-1
EndSplineSet
EndChar

StartChar: b
Encoding: 69 98 69
Width: 500
VWidth: 576
GlyphClass: 2
Flags: W
LayerCount: 2
Fore
SplineSet
100 600 m 1,0,-1
 100 300 l 1,1,-1
 200 300 l 1,2,-1
 200 400 l 1,3,-1
 400 400 l 1,4,-1
 400 100 l 1,5,-1
 300 100 l 1,6,-1
 300 0 l 1,7,-1
 0 0 l 1,8,-1
 0 600 l 1,9,-1
 100 600 l 1,0,-1
300 100 m 1,10,-1
 300 300 l 1,11,-1
 200 300 l 1,12,-1
 200 200 l 1,13,-1
 100 200 l 1,14,-1
 100 100 l 1,15,-1
 300 100 l 1,10,-1
EndSplineSet
EndChar

StartChar: c
Encoding: 70 99 70
Width: 500
VWidth: 576
GlyphClass: 2
Flags: W
LayerCount: 2
Fore
SplineSet
100 300 m 1,0,-1
 100 100 l 1,1,-1
 400 100 l 1,2,-1
 400 0 l 1,3,-1
 0 0 l 1,4,-1
 0 300 l 1,5,-1
 100 300 l 1,0,-1
100 300 m 1,6,-1
 100 400 l 1,7,-1
 400 400 l 1,8,-1
 400 300 l 1,9,-1
 100 300 l 1,6,-1
EndSplineSet
EndChar

StartChar: d
Encoding: 71 100 71
Width: 500
VWidth: 576
GlyphClass: 2
Flags: W
LayerCount: 2
Fore
SplineSet
400 600 m 1,0,-1
 400 0 l 1,1,-1
 300 0 l 1,2,-1
 300 100 l 1,3,-1
 200 100 l 1,4,-1
 200 200 l 1,5,-1
 300 200 l 1,6,-1
 300 300 l 1,7,-1
 100 300 l 1,8,-1
 100 400 l 1,9,-1
 300 400 l 1,10,-1
 300 600 l 1,11,-1
 400 600 l 1,0,-1
100 300 m 1,12,-1
 100 100 l 1,13,-1
 200 100 l 1,14,-1
 200 0 l 1,15,-1
 0 0 l 1,16,-1
 0 300 l 1,17,-1
 100 300 l 1,12,-1
EndSplineSet
EndChar

StartChar: e
Encoding: 72 101 72
Width: 500
VWidth: 576
GlyphClass: 2
Flags: W
LayerCount: 2
Fore
SplineSet
100 300 m 1,0,-1
 100 400 l 1,1,-1
 400 400 l 1,2,-1
 400 200 l 1,3,-1
 200 200 l 1,4,-1
 200 100 l 1,5,-1
 400 100 l 1,6,-1
 400 0 l 1,7,-1
 100 0 l 1,8,-1
 100 100 l 1,9,-1
 0 100 l 1,10,-1
 0 300 l 1,11,-1
 100 300 l 1,0,-1
100 300 m 1,12,-1
 100 200 l 1,13,-1
 200 200 l 1,14,-1
 200 300 l 1,15,-1
 100 300 l 1,12,-1
EndSplineSet
EndChar

StartChar: f
Encoding: 73 102 73
Width: 500
VWidth: 576
GlyphClass: 2
Flags: W
LayerCount: 2
Fore
SplineSet
0 200 m 1,0,-1
 0 300 l 1,1,-1
 100 300 l 1,2,-1
 100 500 l 1,3,-1
 200 500 l 1,4,-1
 200 300 l 1,5,-1
 400 300 l 1,6,-1
 400 200 l 1,7,-1
 200 200 l 1,8,-1
 200 100 l 1,9,-1
 100 100 l 1,10,-1
 100 200 l 1,11,-1
 0 200 l 1,0,-1
100 100 m 1,12,-1
 100 0 l 1,13,-1
 0 0 l 1,14,-1
 0 100 l 1,15,-1
 100 100 l 1,12,-1
200 500 m 1,16,-1
 200 600 l 1,17,-1
 400 600 l 1,18,-1
 400 400 l 1,19,-1
 300 400 l 1,20,-1
 300 500 l 1,21,-1
 200 500 l 1,16,-1
EndSplineSet
EndChar

StartChar: g
Encoding: 74 103 74
Width: 500
VWidth: 576
GlyphClass: 2
Flags: W
LayerCount: 2
Fore
SplineSet
100 300 m 1,0,-1
 100 100 l 1,1,-1
 200 100 l 1,2,-1
 200 200 l 1,3,-1
 300 200 l 1,4,-1
 300 300 l 1,5,-1
 100 300 l 1,0,-1
100 300 m 1,6,-1
 100 400 l 1,7,-1
 400 400 l 1,8,-1
 400 -100 l 1,9,-1
 300 -100 l 1,10,-1
 300 -200 l 1,11,-1
 0 -200 l 1,12,-1
 0 -100 l 1,13,-1
 300 -100 l 1,14,-1
 300 100 l 1,15,-1
 200 100 l 1,16,-1
 200 0 l 1,17,-1
 0 0 l 1,18,-1
 0 300 l 1,19,-1
 100 300 l 1,6,-1
EndSplineSet
EndChar

StartChar: h
Encoding: 75 104 75
Width: 500
VWidth: 576
GlyphClass: 2
Flags: W
LayerCount: 2
Fore
SplineSet
100 600 m 1,0,-1
 100 300 l 1,1,-1
 200 300 l 1,2,-1
 200 200 l 1,3,-1
 100 200 l 1,4,-1
 100 0 l 1,5,-1
 0 0 l 1,6,-1
 0 600 l 1,7,-1
 100 600 l 1,0,-1
200 300 m 1,8,-1
 200 400 l 1,9,-1
 400 400 l 1,10,-1
 400 0 l 1,11,-1
 300 0 l 1,12,-1
 300 300 l 1,13,-1
 200 300 l 1,8,-1
EndSplineSet
EndChar

StartChar: i
Encoding: 76 105 76
Width: 500
VWidth: 576
GlyphClass: 2
Flags: W
LayerCount: 2
Fore
SplineSet
300 600 m 1,0,-1
 300 500 l 1,1,-1
 200 500 l 1,2,-1
 200 600 l 1,3,-1
 300 600 l 1,0,-1
400 0 m 1,4,-1
 200 0 l 1,5,-1
 200 300 l 1,6,-1
 100 300 l 1,7,-1
 100 400 l 1,8,-1
 300 400 l 1,9,-1
 300 100 l 1,10,-1
 400 100 l 1,11,-1
 400 0 l 1,4,-1
100 300 m 1,12,-1
 100 200 l 1,13,-1
 0 200 l 1,14,-1
 0 300 l 1,15,-1
 100 300 l 1,12,-1
EndSplineSet
EndChar

StartChar: j
Encoding: 77 106 77
Width: 500
VWidth: 576
GlyphClass: 2
Flags: W
LayerCount: 2
Fore
SplineSet
0 100 m 1,0,-1
 100 100 l 1,1,-1
 100 0 l 1,2,-1
 300 0 l 1,3,-1
 300 300 l 1,4,-1
 200 300 l 1,5,-1
 200 400 l 1,6,-1
 400 400 l 1,7,-1
 400 0 l 1,8,-1
 300 0 l 1,9,-1
 300 -100 l 1,10,-1
 0 -100 l 1,11,-1
 0 100 l 1,0,-1
400 600 m 1,12,-1
 400 500 l 1,13,-1
 300 500 l 1,14,-1
 300 600 l 1,15,-1
 400 600 l 1,12,-1
EndSplineSet
EndChar

StartChar: k
Encoding: 78 107 78
Width: 500
VWidth: 576
GlyphClass: 2
Flags: W
LayerCount: 2
Fore
SplineSet
100 600 m 1,0,-1
 100 300 l 1,1,-1
 200 300 l 1,2,-1
 200 400 l 1,3,-1
 400 400 l 1,4,-1
 400 300 l 1,5,-1
 300 300 l 1,6,-1
 300 100 l 1,7,-1
 400 100 l 1,8,-1
 400 0 l 1,9,-1
 200 0 l 1,10,-1
 200 200 l 1,11,-1
 100 200 l 1,12,-1
 100 0 l 1,13,-1
 0 0 l 1,14,-1
 0 600 l 1,15,-1
 100 600 l 1,0,-1
EndSplineSet
EndChar

StartChar: l
Encoding: 79 108 79
Width: 500
VWidth: 576
GlyphClass: 2
Flags: W
LayerCount: 2
Fore
SplineSet
300 600 m 1,0,-1
 300 100 l 1,1,-1
 400 100 l 1,2,-1
 400 0 l 1,3,-1
 200 0 l 1,4,-1
 200 500 l 1,5,-1
 100 500 l 1,6,-1
 100 600 l 1,7,-1
 300 600 l 1,0,-1
EndSplineSet
EndChar

StartChar: m
Encoding: 80 109 80
Width: 500
VWidth: 576
GlyphClass: 2
Flags: W
LayerCount: 2
Fore
SplineSet
0 300 m 1,0,-1
 100 300 l 1,1,-1
 100 400 l 1,2,-1
 400 400 l 1,3,-1
 400 0 l 1,4,-1
 300 0 l 1,5,-1
 300 200 l 1,6,-1
 100 200 l 1,7,-1
 100 0 l 1,8,-1
 0 0 l 1,9,-1
 0 300 l 1,0,-1
EndSplineSet
EndChar

StartChar: n
Encoding: 81 110 81
Width: 500
VWidth: 576
GlyphClass: 2
Flags: W
LayerCount: 2
Fore
SplineSet
0 400 m 1,0,-1
 100 400 l 1,1,-1
 100 300 l 1,2,-1
 200 300 l 1,3,-1
 200 200 l 1,4,-1
 100 200 l 1,5,-1
 100 0 l 1,6,-1
 0 0 l 1,7,-1
 0 400 l 1,0,-1
200 300 m 1,8,-1
 200 400 l 1,9,-1
 400 400 l 1,10,-1
 400 0 l 1,11,-1
 300 0 l 1,12,-1
 300 300 l 1,13,-1
 200 300 l 1,8,-1
EndSplineSet
EndChar

StartChar: o
Encoding: 82 111 82
Width: 500
VWidth: 576
GlyphClass: 2
Flags: W
LayerCount: 2
Fore
SplineSet
300 100 m 1,0,-1
 300 0 l 1,1,-1
 0 0 l 1,2,-1
 0 300 l 1,3,-1
 100 300 l 1,4,-1
 100 400 l 1,5,-1
 400 400 l 1,6,-1
 400 100 l 1,7,-1
 300 100 l 1,0,-1
300 100 m 1,8,-1
 300 300 l 1,9,-1
 100 300 l 1,10,-1
 100 100 l 1,11,-1
 300 100 l 1,8,-1
EndSplineSet
EndChar

StartChar: p
Encoding: 83 112 83
Width: 500
VWidth: 576
GlyphClass: 2
Flags: W
LayerCount: 2
Fore
SplineSet
0 -200 m 1,0,-1
 0 400 l 1,1,-1
 100 400 l 1,2,-1
 100 300 l 1,3,-1
 200 300 l 1,4,-1
 200 200 l 1,5,-1
 100 200 l 1,6,-1
 100 100 l 1,7,-1
 300 100 l 1,8,-1
 300 300 l 1,9,-1
 200 300 l 1,10,-1
 200 400 l 1,11,-1
 400 400 l 1,12,-1
 400 100 l 1,13,-1
 300 100 l 1,14,-1
 300 0 l 1,15,-1
 100 0 l 1,16,-1
 100 -200 l 1,17,-1
 0 -200 l 1,0,-1
EndSplineSet
EndChar

StartChar: q
Encoding: 84 113 84
Width: 500
VWidth: 576
GlyphClass: 2
Flags: W
LayerCount: 2
Fore
SplineSet
200 100 m 1,0,-1
 100 100 l 1,1,-1
 100 300 l 1,2,-1
 300 300 l 1,3,-1
 300 200 l 1,4,-1
 200 200 l 1,5,-1
 200 100 l 1,0,-1
200 -200 m 1,6,-1
 400 -200 l 1,7,-1
 400 -100 l 1,8,-1
 300 -100 l 1,9,-1
 300 100 l 1,10,-1
 400 100 l 1,11,-1
 400 400 l 1,12,-1
 100 400 l 1,13,-1
 100 300 l 1,14,-1
 0 300 l 1,15,-1
 0 0 l 1,16,-1
 200 0 l 1,17,-1
 200 -200 l 1,6,-1
EndSplineSet
EndChar

StartChar: r
Encoding: 85 114 85
Width: 500
VWidth: 576
GlyphClass: 2
Flags: W
LayerCount: 2
Fore
SplineSet
0 400 m 1,0,-1
 100 400 l 1,1,-1
 100 300 l 1,2,-1
 200 300 l 1,3,-1
 200 400 l 1,4,-1
 400 400 l 1,5,-1
 400 200 l 1,6,-1
 300 200 l 1,7,-1
 300 300 l 1,8,-1
 200 300 l 1,9,-1
 200 200 l 1,10,-1
 100 200 l 1,11,-1
 100 0 l 1,12,-1
 0 0 l 1,13,-1
 0 400 l 1,0,-1
EndSplineSet
EndChar

StartChar: s
Encoding: 86 115 86
Width: 500
VWidth: 576
GlyphClass: 2
Flags: W
LayerCount: 2
Fore
SplineSet
0 100 m 1,0,-1
 200 100 l 1,1,-1
 200 200 l 1,2,-1
 400 200 l 1,3,-1
 400 100 l 1,4,-1
 300 100 l 1,5,-1
 300 0 l 1,6,-1
 0 0 l 1,7,-1
 0 100 l 1,0,-1
0 300 m 1,8,-1
 100 300 l 1,9,-1
 100 400 l 1,10,-1
 400 400 l 1,11,-1
 400 300 l 1,12,-1
 200 300 l 1,13,-1
 200 200 l 1,14,-1
 0 200 l 1,15,-1
 0 300 l 1,8,-1
EndSplineSet
EndChar

StartChar: t
Encoding: 87 116 87
Width: 500
VWidth: 576
GlyphClass: 2
Flags: W
LayerCount: 2
Fore
SplineSet
200 600 m 1,0,-1
 200 300 l 1,1,-1
 400 300 l 1,2,-1
 400 200 l 1,3,-1
 200 200 l 1,4,-1
 200 100 l 1,5,-1
 300 100 l 1,6,-1
 300 0 l 1,7,-1
 100 0 l 1,8,-1
 100 200 l 1,9,-1
 0 200 l 1,10,-1
 0 300 l 1,11,-1
 100 300 l 1,12,-1
 100 600 l 1,13,-1
 200 600 l 1,0,-1
EndSplineSet
EndChar

StartChar: u
Encoding: 88 117 88
Width: 500
VWidth: 576
GlyphClass: 2
Flags: W
LayerCount: 2
Fore
SplineSet
0 400 m 1,0,-1
 100 400 l 1,1,-1
 100 100 l 1,2,-1
 200 100 l 1,3,-1
 200 0 l 1,4,-1
 0 0 l 1,5,-1
 0 400 l 1,0,-1
200 100 m 1,6,-1
 200 200 l 1,7,-1
 300 200 l 1,8,-1
 300 400 l 1,9,-1
 400 400 l 1,10,-1
 400 0 l 1,11,-1
 300 0 l 1,12,-1
 300 100 l 1,13,-1
 200 100 l 1,6,-1
EndSplineSet
EndChar

StartChar: v
Encoding: 89 118 89
Width: 500
VWidth: 576
GlyphClass: 2
Flags: W
LayerCount: 2
Fore
SplineSet
0 400 m 1,0,-1
 100 400 l 1,1,-1
 100 200 l 1,2,-1
 200 200 l 1,3,-1
 200 100 l 1,4,-1
 100 100 l 1,5,-1
 100 0 l 1,6,-1
 0 0 l 1,7,-1
 0 400 l 1,0,-1
200 200 m 1,8,-1
 200 300 l 1,9,-1
 300 300 l 1,10,-1
 300 200 l 1,11,-1
 200 200 l 1,8,-1
300 300 m 1,12,-1
 300 400 l 1,13,-1
 400 400 l 1,14,-1
 400 300 l 1,15,-1
 300 300 l 1,12,-1
EndSplineSet
EndChar

StartChar: w
Encoding: 90 119 90
Width: 500
VWidth: 576
GlyphClass: 2
Flags: W
LayerCount: 2
Fore
SplineSet
0 400 m 1,0,-1
 100 400 l 1,1,-1
 100 200 l 1,2,-1
 300 200 l 1,3,-1
 300 400 l 1,4,-1
 400 400 l 1,5,-1
 400 100 l 1,6,-1
 300 100 l 1,7,-1
 300 0 l 1,8,-1
 0 0 l 1,9,-1
 0 400 l 1,0,-1
EndSplineSet
EndChar

StartChar: x
Encoding: 91 120 91
Width: 500
VWidth: 576
GlyphClass: 2
Flags: W
LayerCount: 2
Fore
SplineSet
0 300 m 1,0,-1
 0 400 l 1,1,-1
 200 400 l 1,2,-1
 200 300 l 1,3,-1
 300 300 l 1,4,-1
 300 100 l 1,5,-1
 400 100 l 1,6,-1
 400 0 l 1,7,-1
 200 0 l 1,8,-1
 200 100 l 1,9,-1
 100 100 l 1,10,-1
 100 300 l 1,11,-1
 0 300 l 1,0,-1
100 100 m 1,12,-1
 100 0 l 1,13,-1
 0 0 l 1,14,-1
 0 100 l 1,15,-1
 100 100 l 1,12,-1
300 300 m 1,16,-1
 300 400 l 1,17,-1
 400 400 l 1,18,-1
 400 300 l 1,19,-1
 300 300 l 1,16,-1
EndSplineSet
EndChar

StartChar: y
Encoding: 92 121 92
Width: 500
VWidth: 576
GlyphClass: 2
Flags: W
LayerCount: 2
Fore
SplineSet
200 100 m 1,0,-1
 200 0 l 1,1,-1
 0 0 l 1,2,-1
 0 400 l 1,3,-1
 100 400 l 1,4,-1
 100 100 l 1,5,-1
 200 100 l 1,0,-1
200 100 m 1,6,-1
 200 200 l 1,7,-1
 300 200 l 1,8,-1
 300 400 l 1,9,-1
 400 400 l 1,10,-1
 400 -100 l 1,11,-1
 300 -100 l 1,12,-1
 300 100 l 1,13,-1
 200 100 l 1,6,-1
300 -100 m 1,14,-1
 300 -200 l 1,15,-1
 0 -200 l 1,16,-1
 0 -100 l 1,17,-1
 300 -100 l 1,14,-1
EndSplineSet
EndChar

StartChar: z
Encoding: 93 122 93
Width: 500
VWidth: 576
GlyphClass: 2
Flags: W
LayerCount: 2
Fore
SplineSet
0 0 m 1,0,-1
 0 100 l 1,1,-1
 100 100 l 1,2,-1
 100 200 l 1,3,-1
 200 200 l 1,4,-1
 200 100 l 1,5,-1
 400 100 l 1,6,-1
 400 0 l 1,7,-1
 0 0 l 1,0,-1
0 400 m 1,8,-1
 400 400 l 1,9,-1
 400 300 l 1,10,-1
 300 300 l 1,11,-1
 300 200 l 1,12,-1
 200 200 l 1,13,-1
 200 300 l 1,14,-1
 0 300 l 1,15,-1
 0 400 l 1,8,-1
EndSplineSet
EndChar

StartChar: braceleft
Encoding: 94 123 94
Width: 500
VWidth: 576
GlyphClass: 2
Flags: W
LayerCount: 2
Fore
SplineSet
0 100 m 1,0,-1
 0 300 l 1,1,-1
 100 300 l 1,2,-1
 100 500 l 1,3,-1
 200 500 l 1,4,-1
 200 -100 l 1,5,-1
 100 -100 l 1,6,-1
 100 100 l 1,7,-1
 0 100 l 1,0,-1
200 -100 m 1,8,-1
 400 -100 l 1,9,-1
 400 -200 l 1,10,-1
 200 -200 l 1,11,-1
 200 -100 l 1,8,-1
200 500 m 1,12,-1
 200 600 l 1,13,-1
 400 600 l 1,14,-1
 400 500 l 1,15,-1
 200 500 l 1,12,-1
EndSplineSet
EndChar

StartChar: bar
Encoding: 95 124 95
Width: 500
VWidth: 576
GlyphClass: 2
Flags: W
LayerCount: 2
Fore
SplineSet
200 600 m 1,0,-1
 300 600 l 1,1,-1
 300 -200 l 1,2,-1
 200 -200 l 1,3,-1
 200 600 l 1,0,-1
EndSplineSet
EndChar

StartChar: braceright
Encoding: 96 125 96
Width: 500
VWidth: 576
GlyphClass: 2
Flags: W
LayerCount: 2
Fore
SplineSet
400 100 m 1,0,-1
 300 100 l 1,1,-1
 300 -100 l 1,2,-1
 200 -100 l 1,3,-1
 200 500 l 1,4,-1
 300 500 l 1,5,-1
 300 300 l 1,6,-1
 400 300 l 1,7,-1
 400 100 l 1,0,-1
200 500 m 1,8,-1
 0 500 l 1,9,-1
 0 600 l 1,10,-1
 200 600 l 1,11,-1
 200 500 l 1,8,-1
200 -100 m 1,12,-1
 200 -200 l 1,13,-1
 0 -200 l 1,14,-1
 0 -100 l 1,15,-1
 200 -100 l 1,12,-1
EndSplineSet
EndChar

StartChar: asciitilde
Encoding: 97 126 97
Width: 500
VWidth: 576
GlyphClass: 2
Flags: W
LayerCount: 2
Fore
SplineSet
0 500 m 1,0,-1
 200 500 l 1,1,-1
 200 400 l 1,2,-1
 100 400 l 1,3,-1
 100 300 l 1,4,-1
 0 300 l 1,5,-1
 0 500 l 1,0,-1
200 400 m 1,6,-1
 300 400 l 1,7,-1
 300 500 l 1,8,-1
 400 500 l 1,9,-1
 400 300 l 1,10,-1
 200 300 l 1,11,-1
 200 400 l 1,6,-1
EndSplineSet
EndChar

StartChar: exclamdown
Encoding: 99 161 99
Width: 500
VWidth: 576
GlyphClass: 2
Flags: W
LayerCount: 2
Fore
SplineSet
300 -200 m 1,0,-1
 200 -200 l 1,1,-1
 200 300 l 1,2,-1
 300 300 l 1,3,-1
 300 -200 l 1,0,-1
300 400 m 1,4,-1
 200 400 l 1,5,-1
 200 500 l 1,6,-1
 300 500 l 1,7,-1
 300 400 l 1,4,-1
EndSplineSet
EndChar

StartChar: cent
Encoding: 100 162 100
Width: 500
VWidth: 576
GlyphClass: 2
Flags: W
LayerCount: 2
Fore
SplineSet
200 200 m 1,0,-1
 200 400 l 1,1,-1
 100 400 l 1,2,-1
 100 200 l 1,3,-1
 200 200 l 1,0,-1
100 400 m 1,4,-1
 100 500 l 1,5,-1
 200 500 l 1,6,-1
 200 600 l 1,7,-1
 300 600 l 1,8,-1
 300 500 l 1,9,-1
 400 500 l 1,10,-1
 400 400 l 1,11,-1
 300 400 l 1,12,-1
 300 100 l 1,13,-1
 400 100 l 1,14,-1
 400 0 l 1,15,-1
 200 0 l 1,16,-1
 200 -100 l 1,17,-1
 100 -100 l 1,18,-1
 100 100 l 1,19,-1
 0 100 l 1,20,-1
 0 400 l 1,21,-1
 100 400 l 1,4,-1
EndSplineSet
EndChar

StartChar: sterling
Encoding: 101 163 101
Width: 500
VWidth: 576
GlyphClass: 2
Flags: W
LayerCount: 2
Fore
SplineSet
200 600 m 1,0,-1
 300 600 l 1,1,-1
 300 500 l 1,2,-1
 200 500 l 1,3,-1
 200 600 l 1,0,-1
200 500 m 1,4,-1
 200 300 l 1,5,-1
 300 300 l 1,6,-1
 300 200 l 1,7,-1
 200 200 l 1,8,-1
 200 100 l 1,9,-1
 400 100 l 1,10,-1
 400 0 l 1,11,-1
 0 0 l 1,12,-1
 0 100 l 1,13,-1
 100 100 l 1,14,-1
 100 200 l 1,15,-1
 0 200 l 1,16,-1
 0 300 l 1,17,-1
 100 300 l 1,18,-1
 100 500 l 1,19,-1
 200 500 l 1,4,-1
300 500 m 1,20,-1
 400 500 l 1,21,-1
 400 400 l 1,22,-1
 300 400 l 1,23,-1
 300 500 l 1,20,-1
EndSplineSet
EndChar

StartChar: currency
Encoding: 102 164 102
Width: 500
VWidth: 576
GlyphClass: 2
Flags: W
LayerCount: 2
Fore
SplineSet
500 400 m 1,0,-1
 500 300 l 1,1,-1
 400 300 l 1,2,-1
 400 400 l 1,3,-1
 500 400 l 1,0,-1
0 300 m 1,4,-1
 0 400 l 1,5,-1
 100 400 l 1,6,-1
 100 300 l 1,7,-1
 0 300 l 1,4,-1
300 100 m 1,8,-1
 300 200 l 1,9,-1
 200 200 l 1,10,-1
 200 100 l 1,11,-1
 300 100 l 1,8,-1
100 0 m 1,12,-1
 100 300 l 1,13,-1
 400 300 l 1,14,-1
 400 0 l 1,15,-1
 100 0 l 1,12,-1
100 0 m 1,16,-1
 100 -100 l 1,17,-1
 0 -100 l 1,18,-1
 0 0 l 1,19,-1
 100 0 l 1,16,-1
400 0 m 1,20,-1
 500 0 l 1,21,-1
 500 -100 l 1,22,-1
 400 -100 l 1,23,-1
 400 0 l 1,20,-1
EndSplineSet
EndChar

StartChar: yen
Encoding: 103 165 103
Width: 500
VWidth: 576
GlyphClass: 2
Flags: W
LayerCount: 2
Fore
SplineSet
400 600 m 1,0,-1
 400 400 l 1,1,-1
 300 400 l 1,2,-1
 300 600 l 1,3,-1
 400 600 l 1,0,-1
200 400 m 1,4,-1
 100 400 l 1,5,-1
 100 600 l 1,6,-1
 200 600 l 1,7,-1
 200 400 l 1,4,-1
200 400 m 1,8,-1
 300 400 l 1,9,-1
 300 300 l 1,10,-1
 400 300 l 1,11,-1
 400 200 l 1,12,-1
 300 200 l 1,13,-1
 300 0 l 1,14,-1
 200 0 l 1,15,-1
 200 200 l 1,16,-1
 100 200 l 1,17,-1
 100 300 l 1,18,-1
 200 300 l 1,19,-1
 200 400 l 1,8,-1
EndSplineSet
EndChar

StartChar: brokenbar
Encoding: 104 166 104
Width: 500
VWidth: 576
GlyphClass: 2
Flags: W
LayerCount: 2
Fore
SplineSet
300 600 m 1,0,-1
 300 300 l 1,1,-1
 200 300 l 1,2,-1
 200 600 l 1,3,-1
 300 600 l 1,0,-1
200 -100 m 1,4,-1
 200 200 l 1,5,-1
 300 200 l 1,6,-1
 300 -100 l 1,7,-1
 200 -100 l 1,4,-1
EndSplineSet
EndChar

StartChar: section
Encoding: 105 167 105
Width: 500
VWidth: 576
GlyphClass: 2
Flags: W
LayerCount: 2
Fore
SplineSet
100 600 m 1,0,-1
 400 600 l 1,1,-1
 400 500 l 1,2,-1
 100 500 l 1,3,-1
 100 600 l 1,0,-1
0 200 m 1,4,-1
 0 500 l 1,5,-1
 100 500 l 1,6,-1
 100 400 l 1,7,-1
 300 400 l 1,8,-1
 300 300 l 1,9,-1
 400 300 l 1,10,-1
 400 0 l 1,11,-1
 300 0 l 1,12,-1
 300 100 l 1,13,-1
 100 100 l 1,14,-1
 100 200 l 1,15,-1
 0 200 l 1,4,-1
300 0 m 1,16,-1
 300 -100 l 1,17,-1
 0 -100 l 1,18,-1
 0 0 l 1,19,-1
 300 0 l 1,16,-1
100 200 m 1,20,-1
 300 200 l 1,21,-1
 300 300 l 1,22,-1
 100 300 l 1,23,-1
 100 200 l 1,20,-1
EndSplineSet
EndChar

StartChar: dieresis
Encoding: 106 168 106
Width: 500
VWidth: 576
GlyphClass: 2
Flags: W
LayerCount: 2
Fore
SplineSet
100 600 m 1,0,-1
 0 600 l 1,1,-1
 0 700 l 1,2,-1
 100 700 l 1,3,-1
 100 600 l 1,0,-1
400 600 m 1,4,-1
 300 600 l 1,5,-1
 300 700 l 1,6,-1
 400 700 l 1,7,-1
 400 600 l 1,4,-1
EndSplineSet
EndChar

StartChar: copyright
Encoding: 107 169 107
Width: 500
VWidth: 576
GlyphClass: 2
Flags: W
LayerCount: 2
Fore
SplineSet
0 0 m 1,0,-1
 300 0 l 1,1,-1
 300 -100 l 1,2,-1
 0 -100 l 1,3,-1
 0 0 l 1,0,-1
0 0 m 1,4,-1
 -100 0 l 1,5,-1
 -100 400 l 1,6,-1
 0 400 l 1,7,-1
 0 0 l 1,4,-1
100 500 m 1,8,-1
 100 400 l 1,9,-1
 300 400 l 1,10,-1
 300 300 l 1,11,-1
 200 300 l 1,12,-1
 200 200 l 1,13,-1
 300 200 l 1,14,-1
 300 100 l 1,15,-1
 400 100 l 1,16,-1
 400 500 l 1,17,-1
 100 500 l 1,8,-1
100 500 m 1,18,-1
 100 600 l 1,19,-1
 400 600 l 1,20,-1
 400 500 l 1,21,-1
 500 500 l 1,22,-1
 500 100 l 1,23,-1
 400 100 l 1,24,-1
 400 0 l 1,25,-1
 300 0 l 1,26,-1
 300 100 l 1,27,-1
 100 100 l 1,28,-1
 100 400 l 1,29,-1
 0 400 l 1,30,-1
 0 500 l 1,31,-1
 100 500 l 1,18,-1
EndSplineSet
EndChar

StartChar: ordfeminine
Encoding: 108 170 108
Width: 500
VWidth: 576
GlyphClass: 2
Flags: W
LayerCount: 2
Fore
SplineSet
400 600 m 1,0,-1
 400 100 l 1,1,-1
 100 100 l 1,2,-1
 100 300 l 1,3,-1
 200 300 l 1,4,-1
 200 400 l 1,5,-1
 300 400 l 1,6,-1
 300 500 l 1,7,-1
 200 500 l 1,8,-1
 200 600 l 1,9,-1
 400 600 l 1,0,-1
200 500 m 1,10,-1
 200 400 l 1,11,-1
 100 400 l 1,12,-1
 100 500 l 1,13,-1
 200 500 l 1,10,-1
200 300 m 1,14,-1
 200 200 l 1,15,-1
 300 200 l 1,16,-1
 300 300 l 1,17,-1
 200 300 l 1,14,-1
EndSplineSet
EndChar

StartChar: guillemotleft
Encoding: 109 171 109
Width: 500
VWidth: 576
GlyphClass: 2
Flags: W
LayerCount: 2
Fore
SplineSet
500 100 m 1,0,-1
 400 100 l 1,1,-1
 400 200 l 1,2,-1
 500 200 l 1,3,-1
 500 100 l 1,0,-1
200 100 m 1,4,-1
 100 100 l 1,5,-1
 100 200 l 1,6,-1
 200 200 l 1,7,-1
 200 100 l 1,4,-1
200 100 m 1,8,-1
 300 100 l 1,9,-1
 300 0 l 1,10,-1
 200 0 l 1,11,-1
 200 100 l 1,8,-1
400 300 m 1,12,-1
 400 400 l 1,13,-1
 500 400 l 1,14,-1
 500 300 l 1,15,-1
 400 300 l 1,12,-1
400 300 m 1,16,-1
 400 200 l 1,17,-1
 300 200 l 1,18,-1
 300 300 l 1,19,-1
 400 300 l 1,16,-1
100 200 m 1,20,-1
 0 200 l 1,21,-1
 0 300 l 1,22,-1
 100 300 l 1,23,-1
 100 400 l 1,24,-1
 200 400 l 1,25,-1
 200 500 l 1,26,-1
 300 500 l 1,27,-1
 300 400 l 1,28,-1
 200 400 l 1,29,-1
 200 300 l 1,30,-1
 100 300 l 1,31,-1
 100 200 l 1,20,-1
EndSplineSet
EndChar

StartChar: logicalnot
Encoding: 110 172 110
Width: 500
VWidth: 576
GlyphClass: 2
Flags: W
LayerCount: 2
Fore
SplineSet
0 200 m 1,0,-1
 400 200 l 1,1,-1
 400 0 l 1,2,-1
 300 0 l 1,3,-1
 300 100 l 1,4,-1
 0 100 l 1,5,-1
 0 200 l 1,0,-1
EndSplineSet
EndChar

StartChar: uni00AD
Encoding: 111 173 111
Width: 500
VWidth: 576
GlyphClass: 2
Flags: W
LayerCount: 2
Fore
SplineSet
100 300 m 1,0,-1
 400 300 l 1,1,-1
 400 200 l 1,2,-1
 100 200 l 1,3,-1
 100 300 l 1,0,-1
EndSplineSet
EndChar

StartChar: registered
Encoding: 112 174 112
Width: 500
VWidth: 576
GlyphClass: 2
Flags: W
LayerCount: 2
Fore
SplineSet
100 400 m 1,0,-1
 200 400 l 1,1,-1
 200 300 l 1,2,-1
 300 300 l 1,3,-1
 300 400 l 1,4,-1
 400 400 l 1,5,-1
 400 500 l 1,6,-1
 500 500 l 1,7,-1
 500 100 l 1,8,-1
 400 100 l 1,9,-1
 400 300 l 1,10,-1
 300 300 l 1,11,-1
 300 200 l 1,12,-1
 200 200 l 1,13,-1
 200 0 l 1,14,-1
 300 0 l 1,15,-1
 300 -100 l 1,16,-1
 0 -100 l 1,17,-1
 0 0 l 1,18,-1
 100 0 l 1,19,-1
 100 400 l 1,0,-1
100 400 m 1,20,-1
 0 400 l 1,21,-1
 0 500 l 1,22,-1
 100 500 l 1,23,-1
 100 400 l 1,20,-1
300 0 m 1,24,-1
 300 100 l 1,25,-1
 400 100 l 1,26,-1
 400 0 l 1,27,-1
 300 0 l 1,24,-1
400 500 m 1,28,-1
 100 600 l 1,29,-1
 400 600 l 1,30,-1
 400 500 l 1,28,-1
0 400 m 1,31,-1
 0 0 l 1,32,-1
 -100 0 l 1,33,-1
 -100 400 l 1,34,-1
 0 400 l 1,31,-1
EndSplineSet
EndChar

StartChar: macron
Encoding: 113 175 113
Width: 500
VWidth: 576
GlyphClass: 2
Flags: W
LayerCount: 2
Fore
SplineSet
500 500 m 1,0,-1
 0 500 l 1,1,-1
 0 600 l 1,2,-1
 500 600 l 1,3,-1
 500 500 l 1,0,-1
EndSplineSet
EndChar

StartChar: degree
Encoding: 114 176 114
Width: 500
VWidth: 576
GlyphClass: 2
Flags: W
LayerCount: 2
Fore
SplineSet
100 600 m 1,0,-1
 300 600 l 1,1,-1
 300 500 l 1,2,-1
 100 500 l 1,3,-1
 100 600 l 1,0,-1
100 300 m 1,4,-1
 0 300 l 1,5,-1
 0 500 l 1,6,-1
 100 500 l 1,7,-1
 100 300 l 1,4,-1
100 300 m 1,8,-1
 300 300 l 1,9,-1
 300 200 l 1,10,-1
 100 200 l 1,11,-1
 100 300 l 1,8,-1
300 300 m 1,12,-1
 300 500 l 1,13,-1
 400 500 l 1,14,-1
 400 300 l 1,15,-1
 300 300 l 1,12,-1
EndSplineSet
EndChar

StartChar: plusminus
Encoding: 115 177 115
Width: 500
VWidth: 576
GlyphClass: 2
Flags: W
LayerCount: 2
Fore
SplineSet
0 100 m 1,0,-1
 300 100 l 1,1,-1
 300 0 l 1,2,-1
 0 0 l 1,3,-1
 0 100 l 1,0,-1
0 400 m 1,4,-1
 100 400 l 1,5,-1
 100 500 l 1,6,-1
 200 500 l 1,7,-1
 200 400 l 1,8,-1
 300 400 l 1,9,-1
 300 300 l 1,10,-1
 200 300 l 1,11,-1
 200 200 l 1,12,-1
 100 200 l 1,13,-1
 100 300 l 1,14,-1
 0 300 l 1,15,-1
 0 400 l 1,4,-1
EndSplineSet
EndChar

StartChar: uni00B2
Encoding: 116 178 116
Width: 500
VWidth: 576
GlyphClass: 2
Flags: W
LayerCount: 2
Fore
SplineSet
0 500 m 1,0,-1
 0 600 l 1,1,-1
 200 600 l 1,2,-1
 200 500 l 1,3,-1
 0 500 l 1,0,-1
200 400 m 1,4,-1
 200 500 l 1,5,-1
 300 500 l 1,6,-1
 300 400 l 1,7,-1
 200 400 l 1,4,-1
200 400 m 1,8,-1
 200 300 l 1,9,-1
 300 300 l 1,10,-1
 300 200 l 1,11,-1
 0 200 l 1,12,-1
 0 300 l 1,13,-1
 100 300 l 1,14,-1
 100 400 l 1,15,-1
 200 400 l 1,8,-1
EndSplineSet
EndChar

StartChar: uni00B3
Encoding: 117 179 117
Width: 500
VWidth: 576
GlyphClass: 2
Flags: W
LayerCount: 2
Fore
SplineSet
300 600 m 1,0,-1
 300 200 l 1,1,-1
 0 200 l 1,2,-1
 0 300 l 1,3,-1
 100 300 l 1,4,-1
 100 400 l 1,5,-1
 200 400 l 1,6,-1
 200 500 l 1,7,-1
 0 500 l 1,8,-1
 0 600 l 1,9,-1
 300 600 l 1,0,-1
EndSplineSet
EndChar

StartChar: acute
Encoding: 118 180 118
Width: 500
VWidth: 576
GlyphClass: 2
Flags: W
LayerCount: 2
Fore
SplineSet
400 600 m 1,0,-1
 400 500 l 1,1,-1
 300 500 l 1,2,-1
 300 600 l 1,3,-1
 400 600 l 1,0,-1
300 500 m 1,4,-1
 300 400 l 1,5,-1
 200 400 l 1,6,-1
 200 500 l 1,7,-1
 300 500 l 1,4,-1
EndSplineSet
EndChar

StartChar: uni00B5
Encoding: 119 181 119
Width: 500
VWidth: 576
GlyphClass: 2
Flags: W
LayerCount: 2
Fore
SplineSet
200 0 m 1,0,-1
 200 -200 l 1,1,-1
 100 -200 l 1,2,-1
 100 300 l 1,3,-1
 0 300 l 1,4,-1
 0 400 l 1,5,-1
 200 400 l 1,6,-1
 200 100 l 1,7,-1
 300 100 l 1,8,-1
 300 400 l 1,9,-1
 400 400 l 1,10,-1
 400 100 l 1,11,-1
 500 100 l 1,12,-1
 500 0 l 1,13,-1
 200 0 l 1,0,-1
EndSplineSet
EndChar

StartChar: paragraph
Encoding: 120 182 120
Width: 500
VWidth: 576
GlyphClass: 2
Flags: W
LayerCount: 2
Fore
SplineSet
400 600 m 1,0,-1
 400 0 l 1,1,-1
 300 0 l 1,2,-1
 300 500 l 1,3,-1
 200 500 l 1,4,-1
 200 0 l 1,5,-1
 100 0 l 1,6,-1
 100 300 l 1,7,-1
 0 300 l 1,8,-1
 0 500 l 1,9,-1
 100 500 l 1,10,-1
 100 600 l 1,11,-1
 400 600 l 1,0,-1
EndSplineSet
EndChar

StartChar: periodcentered
Encoding: 121 183 121
Width: 500
VWidth: 576
GlyphClass: 2
Flags: W
LayerCount: 2
Fore
SplineSet
300 200 m 1,0,-1
 200 200 l 1,1,-1
 200 300 l 1,2,-1
 300 300 l 1,3,-1
 300 200 l 1,0,-1
EndSplineSet
EndChar

StartChar: cedilla
Encoding: 122 184 122
Width: 500
VWidth: 576
GlyphClass: 2
Flags: W
LayerCount: 2
Fore
SplineSet
300 -300 m 1,0,-1
 100 -300 l 1,1,-1
 100 -200 l 1,2,-1
 200 -200 l 1,3,-1
 200 -100 l 1,4,-1
 300 -100 l 1,5,-1
 300 -300 l 1,0,-1
EndSplineSet
EndChar

StartChar: uni00B9
Encoding: 123 185 123
Width: 500
VWidth: 576
GlyphClass: 2
Flags: W
LayerCount: 2
Fore
SplineSet
100 600 m 1,0,-1
 100 300 l 1,1,-1
 0 300 l 1,2,-1
 0 600 l 1,3,-1
 100 600 l 1,0,-1
EndSplineSet
EndChar

StartChar: ordmasculine
Encoding: 124 186 124
Width: 500
VWidth: 576
GlyphClass: 2
Flags: W
LayerCount: 2
Fore
SplineSet
300 500 m 1,0,-1
 200 500 l 1,1,-1
 200 600 l 1,2,-1
 300 600 l 1,3,-1
 300 500 l 1,0,-1
300 500 m 1,4,-1
 400 500 l 1,5,-1
 400 400 l 1,6,-1
 300 400 l 1,7,-1
 300 500 l 1,4,-1
200 500 m 1,8,-1
 200 400 l 1,9,-1
 100 400 l 1,10,-1
 100 500 l 1,11,-1
 200 500 l 1,8,-1
200 400 m 1,12,-1
 300 400 l 1,13,-1
 300 300 l 1,14,-1
 200 300 l 1,15,-1
 200 400 l 1,12,-1
EndSplineSet
EndChar

StartChar: guillemotright
Encoding: 125 187 125
Width: 500
VWidth: 576
GlyphClass: 2
Flags: W
LayerCount: 2
Fore
SplineSet
0 400 m 1,0,-1
 100 400 l 1,1,-1
 100 300 l 1,2,-1
 0 300 l 1,3,-1
 0 400 l 1,0,-1
100 200 m 1,4,-1
 100 100 l 1,5,-1
 0 100 l 1,6,-1
 0 200 l 1,7,-1
 100 200 l 1,4,-1
100 200 m 1,8,-1
 100 300 l 1,9,-1
 200 300 l 1,10,-1
 200 200 l 1,11,-1
 100 200 l 1,8,-1
300 400 m 1,12,-1
 200 400 l 1,13,-1
 200 500 l 1,14,-1
 300 500 l 1,15,-1
 300 400 l 1,12,-1
300 400 m 1,16,-1
 400 400 l 1,17,-1
 400 300 l 1,18,-1
 300 300 l 1,19,-1
 300 400 l 1,16,-1
300 100 m 1,20,-1
 300 200 l 1,21,-1
 400 200 l 1,22,-1
 400 100 l 1,23,-1
 300 100 l 1,20,-1
300 100 m 1,24,-1
 300 0 l 1,25,-1
 200 0 l 1,26,-1
 200 100 l 1,27,-1
 300 100 l 1,24,-1
400 300 m 1,28,-1
 500 300 l 1,29,-1
 500 200 l 1,30,-1
 400 200 l 1,31,-1
 400 300 l 1,28,-1
EndSplineSet
EndChar

StartChar: onequarter
Encoding: 126 188 126
Width: 500
VWidth: 576
GlyphClass: 2
Flags: W
LayerCount: 2
Fore
SplineSet
300 600 m 1,0,-1
 400 600 l 1,1,-1
 400 500 l 1,2,-1
 300 500 l 1,3,-1
 300 600 l 1,0,-1
0 400 m 1,4,-1
 0 600 l 1,5,-1
 100 600 l 1,6,-1
 100 400 l 1,7,-1
 0 400 l 1,4,-1
300 500 m 1,8,-1
 300 400 l 1,9,-1
 200 400 l 1,10,-1
 200 500 l 1,11,-1
 300 500 l 1,8,-1
100 200 m 1,12,-1
 0 200 l 1,13,-1
 0 300 l 1,14,-1
 100 300 l 1,15,-1
 100 400 l 1,16,-1
 200 400 l 1,17,-1
 200 300 l 1,18,-1
 100 300 l 1,19,-1
 100 200 l 1,12,-1
100 200 m 1,20,-1
 200 200 l 1,21,-1
 200 100 l 1,22,-1
 300 100 l 1,23,-1
 300 200 l 1,24,-1
 400 200 l 1,25,-1
 400 -100 l 1,26,-1
 300 -100 l 1,27,-1
 300 0 l 1,28,-1
 100 0 l 1,29,-1
 100 200 l 1,20,-1
EndSplineSet
EndChar

StartChar: onehalf
Encoding: 127 189 127
Width: 500
VWidth: 576
GlyphClass: 2
Flags: W
LayerCount: 2
Fore
SplineSet
300 600 m 1,0,-1
 400 600 l 1,1,-1
 400 500 l 1,2,-1
 300 500 l 1,3,-1
 300 600 l 1,0,-1
0 400 m 1,4,-1
 0 600 l 1,5,-1
 100 600 l 1,6,-1
 100 400 l 1,7,-1
 0 400 l 1,4,-1
300 500 m 1,8,-1
 300 400 l 1,9,-1
 200 400 l 1,10,-1
 200 500 l 1,11,-1
 300 500 l 1,8,-1
100 300 m 1,12,-1
 100 400 l 1,13,-1
 200 400 l 1,14,-1
 200 300 l 1,15,-1
 100 300 l 1,12,-1
100 300 m 1,16,-1
 100 200 l 1,17,-1
 0 200 l 1,18,-1
 0 300 l 1,19,-1
 100 300 l 1,16,-1
300 100 m 1,20,-1
 300 200 l 1,21,-1
 200 200 l 1,22,-1
 200 300 l 1,23,-1
 300 300 l 1,24,-1
 300 200 l 1,25,-1
 400 200 l 1,26,-1
 400 100 l 1,27,-1
 300 100 l 1,20,-1
300 100 m 1,28,-1
 300 0 l 1,29,-1
 400 0 l 1,30,-1
 400 -100 l 1,31,-1
 100 -100 l 1,32,-1
 100 0 l 1,33,-1
 200 0 l 1,34,-1
 200 100 l 1,35,-1
 300 100 l 1,28,-1
EndSplineSet
EndChar

StartChar: threequarters
Encoding: 128 190 128
Width: 500
VWidth: 576
GlyphClass: 2
Flags: W
LayerCount: 2
Fore
SplineSet
0 300 m 1,0,-1
 0 400 l 1,1,-1
 100 400 l 1,2,-1
 100 500 l 1,3,-1
 0 500 l 1,4,-1
 0 600 l 1,5,-1
 200 600 l 1,6,-1
 200 400 l 1,7,-1
 300 400 l 1,8,-1
 300 500 l 1,9,-1
 400 500 l 1,10,-1
 400 400 l 1,11,-1
 300 400 l 1,12,-1
 300 300 l 1,13,-1
 200 300 l 1,14,-1
 200 200 l 1,15,-1
 100 200 l 1,16,-1
 100 300 l 1,17,-1
 0 300 l 1,0,-1
0 100 m 1,18,-1
 0 200 l 1,19,-1
 100 200 l 1,20,-1
 100 100 l 1,21,-1
 0 100 l 1,18,-1
100 100 m 1,22,-1
 200 100 l 1,23,-1
 200 0 l 1,24,-1
 300 0 l 1,25,-1
 300 100 l 1,26,-1
 400 100 l 1,27,-1
 400 -200 l 1,28,-1
 300 -200 l 1,29,-1
 300 -100 l 1,30,-1
 100 -100 l 1,31,-1
 100 100 l 1,22,-1
EndSplineSet
EndChar

StartChar: questiondown
Encoding: 129 191 129
Width: 500
VWidth: 576
GlyphClass: 2
Flags: W
LayerCount: 2
Fore
SplineSet
300 600 m 1,0,-1
 300 500 l 1,1,-1
 200 500 l 1,2,-1
 200 600 l 1,3,-1
 300 600 l 1,0,-1
200 100 m 1,4,-1
 400 100 l 1,5,-1
 400 0 l 1,6,-1
 100 0 l 1,7,-1
 100 300 l 1,8,-1
 200 300 l 1,9,-1
 200 400 l 1,10,-1
 300 400 l 1,11,-1
 300 200 l 1,12,-1
 200 200 l 1,13,-1
 200 100 l 1,4,-1
EndSplineSet
EndChar

StartChar: Euro
Encoding: 130 8364 130
Width: 500
VWidth: 576
GlyphClass: 2
Flags: W
LayerCount: 2
Fore
SplineSet
0 300 m 1,0,-1
 100 300 l 1,1,-1
 100 400 l 1,2,-1
 200 400 l 1,3,-1
 200 500 l 1,4,-1
 400 500 l 1,5,-1
 400 400 l 1,6,-1
 200 400 l 1,7,-1
 200 300 l 1,8,-1
 400 300 l 1,9,-1
 400 100 l 1,10,-1
 200 100 l 1,11,-1
 200 0 l 1,12,-1
 400 0 l 1,13,-1
 400 -100 l 1,14,-1
 200 -100 l 1,15,-1
 200 0 l 1,16,-1
 100 0 l 1,17,-1
 100 100 l 1,18,-1
 0 100 l 1,19,-1
 0 300 l 1,0,-1
EndSplineSet
EndChar

StartChar: carriagereturn
Encoding: 131 8629 131
Width: 500
VWidth: 576
GlyphClass: 2
Flags: W
LayerCount: 2
Fore
SplineSet
100 100 m 1,0,-1
 100 200 l 1,1,-1
 200 200 l 1,2,-1
 200 300 l 1,3,-1
 300 300 l 1,4,-1
 300 200 l 1,5,-1
 200 200 l 1,6,-1
 200 100 l 1,7,-1
 400 100 l 1,8,-1
 400 600 l 1,9,-1
 500 600 l 1,10,-1
 500 0 l 1,11,-1
 200 0 l 1,12,-1
 200 -100 l 1,13,-1
 300 -100 l 1,14,-1
 300 -200 l 1,15,-1
 200 -200 l 1,16,-1
 200 -100 l 1,17,-1
 100 -100 l 1,18,-1
 100 0 l 1,19,-1
 0 0 l 1,20,-1
 0 100 l 1,21,-1
 100 100 l 1,0,-1
EndSplineSet
EndChar

StartChar: SF100000
Encoding: 132 9472 132
Width: 500
VWidth: 576
GlyphClass: 2
Flags: W
LayerCount: 2
Fore
SplineSet
500 100 m 1,0,-1
 0 100 l 1,1,-1
 0 200 l 1,2,-1
 500 200 l 1,3,-1
 500 100 l 1,0,-1
EndSplineSet
EndChar

StartChar: uni2501
Encoding: 133 9473 133
Width: 500
VWidth: 576
GlyphClass: 2
Flags: W
LayerCount: 2
Fore
SplineSet
500 100 m 1,0,-1
 0 100 l 1,1,-1
 0 300 l 1,2,-1
 500 300 l 1,3,-1
 500 100 l 1,0,-1
EndSplineSet
EndChar

StartChar: SF110000
Encoding: 134 9474 134
Width: 500
VWidth: 576
GlyphClass: 2
Flags: W
LayerCount: 2
Fore
SplineSet
200 700 m 1,0,-1
 300 700 l 1,1,-1
 300 -300 l 1,2,-1
 200 -300 l 1,3,-1
 200 700 l 1,0,-1
EndSplineSet
EndChar

StartChar: uni2503
Encoding: 135 9475 135
Width: 500
VWidth: 576
GlyphClass: 2
Flags: W
LayerCount: 2
Fore
SplineSet
100 700 m 1,0,-1
 300 700 l 1,1,-1
 300 -300 l 1,2,-1
 100 -300 l 1,3,-1
 100 700 l 1,0,-1
EndSplineSet
EndChar

StartChar: uni2504
Encoding: 136 9476 136
Width: 500
VWidth: 576
GlyphClass: 2
Flags: W
LayerCount: 2
Fore
SplineSet
0 200 m 1,0,-1
 100 200 l 1,1,-1
 100 100 l 1,2,-1
 0 100 l 1,3,-1
 0 200 l 1,0,-1
500 100 m 1,4,-1
 400 100 l 1,5,-1
 400 200 l 1,6,-1
 500 200 l 1,7,-1
 500 100 l 1,4,-1
200 100 m 1,8,-1
 200 200 l 1,9,-1
 300 200 l 1,10,-1
 300 100 l 1,11,-1
 200 100 l 1,8,-1
EndSplineSet
EndChar

StartChar: uni2505
Encoding: 137 9477 137
Width: 500
VWidth: 576
GlyphClass: 2
Flags: W
LayerCount: 2
Fore
SplineSet
0 300 m 1,0,-1
 100 300 l 1,1,-1
 100 100 l 1,2,-1
 0 100 l 1,3,-1
 0 300 l 1,0,-1
500 100 m 1,4,-1
 400 100 l 1,5,-1
 400 300 l 1,6,-1
 500 300 l 1,7,-1
 500 100 l 1,4,-1
200 100 m 1,8,-1
 200 300 l 1,9,-1
 300 300 l 1,10,-1
 300 100 l 1,11,-1
 200 100 l 1,8,-1
EndSplineSet
EndChar

StartChar: uni2506
Encoding: 138 9478 138
Width: 500
VWidth: 576
GlyphClass: 2
Flags: W
LayerCount: 2
Fore
SplineSet
200 -200 m 1,0,-1
 200 0 l 1,1,-1
 300 0 l 1,2,-1
 300 -200 l 1,3,-1
 200 -200 l 1,0,-1
200 500 m 1,4,-1
 200 700 l 1,5,-1
 300 700 l 1,6,-1
 300 500 l 1,7,-1
 200 500 l 1,4,-1
200 100 m 1,8,-1
 200 400 l 1,9,-1
 300 400 l 1,10,-1
 300 100 l 1,11,-1
 200 100 l 1,8,-1
EndSplineSet
EndChar

StartChar: uni2507
Encoding: 139 9479 139
Width: 500
VWidth: 576
GlyphClass: 2
Flags: W
LayerCount: 2
Fore
SplineSet
100 -200 m 1,0,-1
 100 0 l 1,1,-1
 300 0 l 1,2,-1
 300 -200 l 1,3,-1
 100 -200 l 1,0,-1
100 500 m 1,4,-1
 100 700 l 1,5,-1
 300 700 l 1,6,-1
 300 500 l 1,7,-1
 100 500 l 1,4,-1
100 100 m 1,8,-1
 100 400 l 1,9,-1
 300 400 l 1,10,-1
 300 100 l 1,11,-1
 100 100 l 1,8,-1
EndSplineSet
EndChar

StartChar: uni2508
Encoding: 140 9480 140
Width: 500
VWidth: 576
GlyphClass: 2
Flags: W
LayerCount: 2
Fore
SplineSet
300 100 m 1,0,-1
 300 200 l 1,1,-1
 400 200 l 1,2,-1
 400 100 l 1,3,-1
 300 100 l 1,0,-1
100 100 m 1,4,-1
 100 200 l 1,5,-1
 200 200 l 1,6,-1
 200 100 l 1,7,-1
 100 100 l 1,4,-1
EndSplineSet
EndChar

StartChar: uni2509
Encoding: 141 9481 141
Width: 500
VWidth: 576
GlyphClass: 2
Flags: W
LayerCount: 2
Fore
SplineSet
300 100 m 1,0,-1
 300 300 l 1,1,-1
 400 300 l 1,2,-1
 400 100 l 1,3,-1
 300 100 l 1,0,-1
100 100 m 1,4,-1
 100 300 l 1,5,-1
 200 300 l 1,6,-1
 200 100 l 1,7,-1
 100 100 l 1,4,-1
EndSplineSet
EndChar

StartChar: uni250A
Encoding: 142 9482 142
Width: 500
VWidth: 576
GlyphClass: 2
Flags: W
LayerCount: 2
Fore
SplineSet
300 -200 m 1,0,-1
 200 -200 l 1,1,-1
 200 -100 l 1,2,-1
 300 -100 l 1,3,-1
 300 -200 l 1,0,-1
200 0 m 1,4,-1
 200 100 l 1,5,-1
 300 100 l 1,6,-1
 300 0 l 1,7,-1
 200 0 l 1,4,-1
200 200 m 1,8,-1
 200 300 l 1,9,-1
 300 300 l 1,10,-1
 300 200 l 1,11,-1
 200 200 l 1,8,-1
200 400 m 1,12,-1
 200 500 l 1,13,-1
 300 500 l 1,14,-1
 300 400 l 1,15,-1
 200 400 l 1,12,-1
200 600 m 1,16,-1
 200 700 l 1,17,-1
 300 700 l 1,18,-1
 300 600 l 1,19,-1
 200 600 l 1,16,-1
EndSplineSet
EndChar

StartChar: uni250B
Encoding: 143 9483 143
Width: 500
VWidth: 576
GlyphClass: 2
Flags: W
LayerCount: 2
Fore
SplineSet
300 -200 m 1,0,-1
 100 -200 l 1,1,-1
 100 -100 l 1,2,-1
 300 -100 l 1,3,-1
 300 -200 l 1,0,-1
100 0 m 1,4,-1
 100 100 l 1,5,-1
 300 100 l 1,6,-1
 300 0 l 1,7,-1
 100 0 l 1,4,-1
100 200 m 1,8,-1
 100 300 l 1,9,-1
 300 300 l 1,10,-1
 300 200 l 1,11,-1
 100 200 l 1,8,-1
100 400 m 1,12,-1
 100 500 l 1,13,-1
 300 500 l 1,14,-1
 300 400 l 1,15,-1
 100 400 l 1,12,-1
100 600 m 1,16,-1
 100 700 l 1,17,-1
 300 700 l 1,18,-1
 300 600 l 1,19,-1
 100 600 l 1,16,-1
EndSplineSet
EndChar

StartChar: SF010000
Encoding: 144 9484 144
Width: 500
VWidth: 576
GlyphClass: 2
Flags: W
LayerCount: 2
Fore
SplineSet
500 200 m 1,0,-1
 500 100 l 1,1,-1
 300 100 l 1,2,-1
 300 -300 l 1,3,-1
 200 -300 l 1,4,-1
 200 200 l 1,5,-1
 500 200 l 1,0,-1
EndSplineSet
EndChar

StartChar: uni250D
Encoding: 145 9485 145
Width: 500
VWidth: 576
GlyphClass: 2
Flags: W
LayerCount: 2
Fore
SplineSet
500 300 m 1,0,-1
 500 100 l 1,1,-1
 300 100 l 1,2,-1
 300 -300 l 1,3,-1
 200 -300 l 1,4,-1
 200 300 l 1,5,-1
 500 300 l 1,0,-1
EndSplineSet
EndChar

StartChar: uni250E
Encoding: 146 9486 146
Width: 500
VWidth: 576
GlyphClass: 2
Flags: W
LayerCount: 2
Fore
SplineSet
500 200 m 1,0,-1
 500 100 l 1,1,-1
 300 100 l 1,2,-1
 300 -300 l 1,3,-1
 100 -300 l 1,4,-1
 100 200 l 1,5,-1
 500 200 l 1,0,-1
EndSplineSet
EndChar

StartChar: uni250F
Encoding: 147 9487 147
Width: 500
VWidth: 576
GlyphClass: 2
Flags: W
LayerCount: 2
Fore
SplineSet
500 300 m 1,0,-1
 500 100 l 1,1,-1
 300 100 l 1,2,-1
 300 -300 l 1,3,-1
 100 -300 l 1,4,-1
 100 300 l 1,5,-1
 500 300 l 1,0,-1
EndSplineSet
EndChar

StartChar: SF030000
Encoding: 148 9488 148
Width: 500
VWidth: 576
GlyphClass: 2
Flags: W
LayerCount: 2
Fore
SplineSet
0 100 m 1,0,-1
 0 200 l 1,1,-1
 300 200 l 1,2,-1
 300 -300 l 1,3,-1
 200 -300 l 1,4,-1
 200 100 l 1,5,-1
 0 100 l 1,0,-1
EndSplineSet
EndChar

StartChar: uni2511
Encoding: 149 9489 149
Width: 500
VWidth: 576
GlyphClass: 2
Flags: W
LayerCount: 2
Fore
SplineSet
0 100 m 1,0,-1
 0 300 l 1,1,-1
 300 300 l 1,2,-1
 300 -300 l 1,3,-1
 200 -300 l 1,4,-1
 200 100 l 1,5,-1
 0 100 l 1,0,-1
EndSplineSet
EndChar

StartChar: uni2512
Encoding: 150 9490 150
Width: 500
VWidth: 576
GlyphClass: 2
Flags: W
LayerCount: 2
Fore
SplineSet
0 100 m 1,0,-1
 0 200 l 1,1,-1
 300 200 l 1,2,-1
 300 -300 l 1,3,-1
 100 -300 l 1,4,-1
 100 100 l 1,5,-1
 0 100 l 1,0,-1
EndSplineSet
EndChar

StartChar: uni2513
Encoding: 151 9491 151
Width: 500
VWidth: 576
GlyphClass: 2
Flags: W
LayerCount: 2
Fore
SplineSet
0 100 m 1,0,-1
 0 300 l 1,1,-1
 300 300 l 1,2,-1
 300 -300 l 1,3,-1
 100 -300 l 1,4,-1
 100 100 l 1,5,-1
 0 100 l 1,0,-1
EndSplineSet
EndChar

StartChar: SF020000
Encoding: 152 9492 152
Width: 500
VWidth: 576
GlyphClass: 2
Flags: W
LayerCount: 2
Fore
SplineSet
500 100 m 1,0,-1
 200 100 l 1,1,-1
 200 700 l 1,2,-1
 300 700 l 1,3,-1
 300 200 l 1,4,-1
 500 200 l 1,5,-1
 500 100 l 1,0,-1
EndSplineSet
EndChar

StartChar: uni2515
Encoding: 153 9493 153
Width: 500
VWidth: 576
GlyphClass: 2
Flags: W
LayerCount: 2
Fore
SplineSet
500 100 m 1,0,-1
 200 100 l 1,1,-1
 200 700 l 1,2,-1
 300 700 l 1,3,-1
 300 300 l 1,4,-1
 500 300 l 1,5,-1
 500 100 l 1,0,-1
EndSplineSet
EndChar

StartChar: uni2516
Encoding: 154 9494 154
Width: 500
VWidth: 576
GlyphClass: 2
Flags: W
LayerCount: 2
Fore
SplineSet
500 100 m 1,0,-1
 100 100 l 1,1,-1
 100 700 l 1,2,-1
 300 700 l 1,3,-1
 300 200 l 1,4,-1
 500 200 l 1,5,-1
 500 100 l 1,0,-1
EndSplineSet
EndChar

StartChar: uni2517
Encoding: 155 9495 155
Width: 500
VWidth: 576
GlyphClass: 2
Flags: W
LayerCount: 2
Fore
SplineSet
500 100 m 1,0,-1
 100 100 l 1,1,-1
 100 700 l 1,2,-1
 300 700 l 1,3,-1
 300 300 l 1,4,-1
 500 300 l 1,5,-1
 500 100 l 1,0,-1
EndSplineSet
EndChar

StartChar: SF040000
Encoding: 156 9496 156
Width: 500
VWidth: 576
GlyphClass: 2
Flags: W
LayerCount: 2
Fore
SplineSet
200 200 m 1,0,-1
 200 700 l 1,1,-1
 300 700 l 1,2,-1
 300 100 l 1,3,-1
 0 100 l 1,4,-1
 0 200 l 1,5,-1
 200 200 l 1,0,-1
EndSplineSet
EndChar

StartChar: uni2519
Encoding: 157 9497 157
Width: 500
VWidth: 576
GlyphClass: 2
Flags: W
LayerCount: 2
Fore
SplineSet
200 300 m 1,0,-1
 200 700 l 1,1,-1
 300 700 l 1,2,-1
 300 100 l 1,3,-1
 0 100 l 1,4,-1
 0 300 l 1,5,-1
 200 300 l 1,0,-1
EndSplineSet
EndChar

StartChar: uni251A
Encoding: 158 9498 158
Width: 500
VWidth: 576
GlyphClass: 2
Flags: W
LayerCount: 2
Fore
SplineSet
300 700 m 1,0,-1
 300 100 l 1,1,-1
 0 100 l 1,2,-1
 0 200 l 1,3,-1
 100 200 l 1,4,-1
 100 700 l 1,5,-1
 300 700 l 1,0,-1
EndSplineSet
EndChar

StartChar: uni251B
Encoding: 159 9499 159
Width: 500
VWidth: 576
GlyphClass: 2
Flags: W
LayerCount: 2
Fore
SplineSet
300 700 m 1,0,-1
 300 100 l 1,1,-1
 0 100 l 1,2,-1
 0 300 l 1,3,-1
 100 300 l 1,4,-1
 100 700 l 1,5,-1
 300 700 l 1,0,-1
EndSplineSet
EndChar

StartChar: SF080000
Encoding: 160 9500 160
Width: 500
VWidth: 576
GlyphClass: 2
Flags: W
LayerCount: 2
Fore
SplineSet
300 -300 m 1,0,-1
 200 -300 l 1,1,-1
 200 700 l 1,2,-1
 300 700 l 1,3,-1
 300 200 l 1,4,-1
 500 200 l 1,5,-1
 500 100 l 1,6,-1
 300 100 l 1,7,-1
 300 -300 l 1,0,-1
EndSplineSet
EndChar

StartChar: uni251D
Encoding: 161 9501 161
Width: 500
VWidth: 576
GlyphClass: 2
Flags: W
LayerCount: 2
Fore
SplineSet
300 -300 m 1,0,-1
 200 -300 l 1,1,-1
 200 700 l 1,2,-1
 300 700 l 1,3,-1
 300 300 l 1,4,-1
 500 300 l 1,5,-1
 500 100 l 1,6,-1
 300 100 l 1,7,-1
 300 -300 l 1,0,-1
EndSplineSet
EndChar

StartChar: uni251E
Encoding: 162 9502 162
Width: 500
VWidth: 576
GlyphClass: 2
Flags: W
LayerCount: 2
Fore
SplineSet
300 -300 m 1,0,-1
 200 -300 l 1,1,-1
 200 100 l 1,2,-1
 100 100 l 1,3,-1
 100 700 l 1,4,-1
 300 700 l 1,5,-1
 300 200 l 1,6,-1
 500 200 l 1,7,-1
 500 100 l 1,8,-1
 300 100 l 1,9,-1
 300 -300 l 1,0,-1
EndSplineSet
EndChar

StartChar: uni251F
Encoding: 163 9503 163
Width: 500
VWidth: 576
GlyphClass: 2
Flags: W
LayerCount: 2
Fore
SplineSet
300 -300 m 1,0,-1
 100 -300 l 1,1,-1
 100 200 l 1,2,-1
 200 200 l 1,3,-1
 200 700 l 1,4,-1
 300 700 l 1,5,-1
 300 200 l 1,6,-1
 500 200 l 1,7,-1
 500 100 l 1,8,-1
 300 100 l 1,9,-1
 300 -300 l 1,0,-1
EndSplineSet
EndChar

StartChar: uni2520
Encoding: 164 9504 164
Width: 500
VWidth: 576
GlyphClass: 2
Flags: W
LayerCount: 2
Fore
SplineSet
300 -300 m 1,0,-1
 100 -300 l 1,1,-1
 100 700 l 1,2,-1
 300 700 l 1,3,-1
 300 200 l 1,4,-1
 500 200 l 1,5,-1
 500 100 l 1,6,-1
 300 100 l 1,7,-1
 300 -300 l 1,0,-1
EndSplineSet
EndChar

StartChar: uni2521
Encoding: 165 9505 165
Width: 500
VWidth: 576
GlyphClass: 2
Flags: W
LayerCount: 2
Fore
SplineSet
300 -300 m 1,0,-1
 200 -300 l 1,1,-1
 200 100 l 1,2,-1
 100 100 l 1,3,-1
 100 700 l 1,4,-1
 300 700 l 1,5,-1
 300 300 l 1,6,-1
 500 300 l 1,7,-1
 500 100 l 1,8,-1
 300 100 l 1,9,-1
 300 -300 l 1,0,-1
EndSplineSet
EndChar

StartChar: uni2522
Encoding: 166 9506 166
Width: 500
VWidth: 576
GlyphClass: 2
Flags: W
LayerCount: 2
Fore
SplineSet
100 -300 m 1,0,-1
 100 300 l 1,1,-1
 200 300 l 1,2,-1
 200 700 l 1,3,-1
 300 700 l 1,4,-1
 300 300 l 1,5,-1
 500 300 l 1,6,-1
 500 100 l 1,7,-1
 300 100 l 1,8,-1
 300 -300 l 1,9,-1
 100 -300 l 1,0,-1
EndSplineSet
EndChar

StartChar: uni2523
Encoding: 167 9507 167
Width: 500
VWidth: 576
GlyphClass: 2
Flags: W
LayerCount: 2
Fore
SplineSet
300 -300 m 1,0,-1
 100 -300 l 1,1,-1
 100 700 l 1,2,-1
 300 700 l 1,3,-1
 300 300 l 1,4,-1
 500 300 l 1,5,-1
 500 100 l 1,6,-1
 300 100 l 1,7,-1
 300 -300 l 1,0,-1
EndSplineSet
EndChar

StartChar: SF090000
Encoding: 168 9508 168
Width: 500
VWidth: 576
GlyphClass: 2
Flags: W
LayerCount: 2
Fore
SplineSet
300 -300 m 1,0,-1
 200 -300 l 1,1,-1
 200 100 l 1,2,-1
 0 100 l 1,3,-1
 0 200 l 1,4,-1
 200 200 l 1,5,-1
 200 700 l 1,6,-1
 300 700 l 1,7,-1
 300 -300 l 1,0,-1
EndSplineSet
EndChar

StartChar: uni2525
Encoding: 169 9509 169
Width: 500
VWidth: 576
GlyphClass: 2
Flags: W
LayerCount: 2
Fore
SplineSet
300 -300 m 1,0,-1
 200 -300 l 1,1,-1
 200 100 l 1,2,-1
 0 100 l 1,3,-1
 0 300 l 1,4,-1
 200 300 l 1,5,-1
 200 700 l 1,6,-1
 300 700 l 1,7,-1
 300 -300 l 1,0,-1
EndSplineSet
EndChar

StartChar: uni2526
Encoding: 170 9510 170
Width: 500
VWidth: 576
GlyphClass: 2
Flags: W
LayerCount: 2
Fore
SplineSet
300 -300 m 1,0,-1
 200 -300 l 1,1,-1
 200 100 l 1,2,-1
 0 100 l 1,3,-1
 0 200 l 1,4,-1
 100 200 l 1,5,-1
 100 700 l 1,6,-1
 300 700 l 1,7,-1
 300 -300 l 1,0,-1
EndSplineSet
EndChar

StartChar: uni2527
Encoding: 171 9511 171
Width: 500
VWidth: 576
GlyphClass: 2
Flags: W
LayerCount: 2
Fore
SplineSet
300 -300 m 1,0,-1
 100 -300 l 1,1,-1
 100 100 l 1,2,-1
 0 100 l 1,3,-1
 0 200 l 1,4,-1
 200 200 l 1,5,-1
 200 700 l 1,6,-1
 300 700 l 1,7,-1
 300 -300 l 1,0,-1
EndSplineSet
EndChar

StartChar: uni2528
Encoding: 172 9512 172
Width: 500
VWidth: 576
GlyphClass: 2
Flags: W
LayerCount: 2
Fore
SplineSet
300 -300 m 1,0,-1
 100 -300 l 1,1,-1
 100 100 l 1,2,-1
 0 100 l 1,3,-1
 0 200 l 1,4,-1
 100 200 l 1,5,-1
 100 700 l 1,6,-1
 300 700 l 1,7,-1
 300 -300 l 1,0,-1
EndSplineSet
EndChar

StartChar: uni2529
Encoding: 173 9513 173
Width: 500
VWidth: 576
GlyphClass: 2
Flags: W
LayerCount: 2
Fore
SplineSet
300 -300 m 1,0,-1
 200 -300 l 1,1,-1
 200 100 l 1,2,-1
 0 100 l 1,3,-1
 0 300 l 1,4,-1
 100 300 l 1,5,-1
 100 700 l 1,6,-1
 300 700 l 1,7,-1
 300 -300 l 1,0,-1
EndSplineSet
EndChar

StartChar: uni252A
Encoding: 174 9514 174
Width: 500
VWidth: 576
GlyphClass: 2
Flags: W
LayerCount: 2
Fore
SplineSet
300 -300 m 1,0,-1
 100 -300 l 1,1,-1
 100 100 l 1,2,-1
 0 100 l 1,3,-1
 0 300 l 1,4,-1
 200 300 l 1,5,-1
 200 700 l 1,6,-1
 300 700 l 1,7,-1
 300 -300 l 1,0,-1
EndSplineSet
EndChar

StartChar: uni252B
Encoding: 175 9515 175
Width: 500
VWidth: 576
GlyphClass: 2
Flags: W
LayerCount: 2
Fore
SplineSet
300 -300 m 1,0,-1
 100 -300 l 1,1,-1
 100 100 l 1,2,-1
 0 100 l 1,3,-1
 0 300 l 1,4,-1
 100 300 l 1,5,-1
 100 700 l 1,6,-1
 300 700 l 1,7,-1
 300 -300 l 1,0,-1
EndSplineSet
EndChar

StartChar: SF060000
Encoding: 176 9516 176
Width: 500
VWidth: 576
GlyphClass: 2
Flags: W
LayerCount: 2
Fore
SplineSet
300 -300 m 1,0,-1
 200 -300 l 1,1,-1
 200 100 l 1,2,-1
 0 100 l 1,3,-1
 0 200 l 1,4,-1
 500 200 l 1,5,-1
 500 100 l 1,6,-1
 300 100 l 1,7,-1
 300 -300 l 1,0,-1
EndSplineSet
EndChar

StartChar: uni252D
Encoding: 177 9517 177
Width: 500
VWidth: 576
GlyphClass: 2
Flags: W
LayerCount: 2
Fore
SplineSet
300 -300 m 1,0,-1
 200 -300 l 1,1,-1
 200 100 l 1,2,-1
 0 100 l 1,3,-1
 0 300 l 1,4,-1
 300 300 l 1,5,-1
 300 200 l 1,6,-1
 500 200 l 1,7,-1
 500 100 l 1,8,-1
 300 100 l 1,9,-1
 300 -300 l 1,0,-1
EndSplineSet
EndChar

StartChar: uni252E
Encoding: 178 9518 178
Width: 500
VWidth: 576
GlyphClass: 2
Flags: W
LayerCount: 2
Fore
SplineSet
300 -300 m 1,0,-1
 200 -300 l 1,1,-1
 200 100 l 1,2,-1
 0 100 l 1,3,-1
 0 200 l 1,4,-1
 200 200 l 1,5,-1
 200 300 l 1,6,-1
 500 300 l 1,7,-1
 500 100 l 1,8,-1
 300 100 l 1,9,-1
 300 -300 l 1,0,-1
EndSplineSet
EndChar

StartChar: uni252F
Encoding: 179 9519 179
Width: 500
VWidth: 576
GlyphClass: 2
Flags: W
LayerCount: 2
Fore
SplineSet
300 -300 m 1,0,-1
 200 -300 l 1,1,-1
 200 100 l 1,2,-1
 0 100 l 1,3,-1
 0 300 l 1,4,-1
 500 300 l 1,5,-1
 500 100 l 1,6,-1
 300 100 l 1,7,-1
 300 -300 l 1,0,-1
EndSplineSet
EndChar

StartChar: uni2530
Encoding: 180 9520 180
Width: 500
VWidth: 576
GlyphClass: 2
Flags: W
LayerCount: 2
Fore
SplineSet
300 -300 m 1,0,-1
 100 -300 l 1,1,-1
 100 100 l 1,2,-1
 0 100 l 1,3,-1
 0 200 l 1,4,-1
 500 200 l 1,5,-1
 500 100 l 1,6,-1
 300 100 l 1,7,-1
 300 -300 l 1,0,-1
EndSplineSet
EndChar

StartChar: uni2531
Encoding: 181 9521 181
Width: 500
VWidth: 576
GlyphClass: 2
Flags: W
LayerCount: 2
Fore
SplineSet
300 -300 m 1,0,-1
 100 -300 l 1,1,-1
 100 100 l 1,2,-1
 0 100 l 1,3,-1
 0 300 l 1,4,-1
 300 300 l 1,5,-1
 300 200 l 1,6,-1
 500 200 l 1,7,-1
 500 100 l 1,8,-1
 300 100 l 1,9,-1
 300 -300 l 1,0,-1
EndSplineSet
EndChar

StartChar: uni2532
Encoding: 182 9522 182
Width: 500
VWidth: 576
GlyphClass: 2
Flags: W
LayerCount: 2
Fore
SplineSet
300 -300 m 1,0,-1
 100 -300 l 1,1,-1
 100 100 l 1,2,-1
 0 100 l 1,3,-1
 0 200 l 1,4,-1
 100 200 l 1,5,-1
 100 300 l 1,6,-1
 500 300 l 1,7,-1
 500 100 l 1,8,-1
 300 100 l 1,9,-1
 300 -300 l 1,0,-1
EndSplineSet
EndChar

StartChar: uni2533
Encoding: 183 9523 183
Width: 500
VWidth: 576
GlyphClass: 2
Flags: W
LayerCount: 2
Fore
SplineSet
300 -300 m 1,0,-1
 100 -300 l 1,1,-1
 100 100 l 1,2,-1
 0 100 l 1,3,-1
 0 300 l 1,4,-1
 500 300 l 1,5,-1
 500 100 l 1,6,-1
 300 100 l 1,7,-1
 300 -300 l 1,0,-1
EndSplineSet
EndChar

StartChar: SF070000
Encoding: 184 9524 184
Width: 500
VWidth: 576
GlyphClass: 2
Flags: W
LayerCount: 2
Fore
SplineSet
500 100 m 1,0,-1
 0 100 l 1,1,-1
 0 200 l 1,2,-1
 200 200 l 1,3,-1
 200 700 l 1,4,-1
 300 700 l 1,5,-1
 300 200 l 1,6,-1
 500 200 l 1,7,-1
 500 100 l 1,0,-1
EndSplineSet
EndChar

StartChar: uni2535
Encoding: 185 9525 185
Width: 500
VWidth: 576
GlyphClass: 2
Flags: W
LayerCount: 2
Fore
SplineSet
500 100 m 1,0,-1
 0 100 l 1,1,-1
 0 300 l 1,2,-1
 200 300 l 1,3,-1
 200 700 l 1,4,-1
 300 700 l 1,5,-1
 300 200 l 1,6,-1
 500 200 l 1,7,-1
 500 100 l 1,0,-1
EndSplineSet
EndChar

StartChar: uni2536
Encoding: 186 9526 186
Width: 500
VWidth: 576
GlyphClass: 2
Flags: W
LayerCount: 2
Fore
SplineSet
500 100 m 1,0,-1
 0 100 l 1,1,-1
 0 200 l 1,2,-1
 200 200 l 1,3,-1
 200 700 l 1,4,-1
 300 700 l 1,5,-1
 300 300 l 1,6,-1
 500 300 l 1,7,-1
 500 100 l 1,0,-1
EndSplineSet
EndChar

StartChar: uni2537
Encoding: 187 9527 187
Width: 500
VWidth: 576
GlyphClass: 2
Flags: W
LayerCount: 2
Fore
SplineSet
500 100 m 1,0,-1
 0 100 l 1,1,-1
 0 300 l 1,2,-1
 200 300 l 1,3,-1
 200 700 l 1,4,-1
 300 700 l 1,5,-1
 300 300 l 1,6,-1
 500 300 l 1,7,-1
 500 100 l 1,0,-1
EndSplineSet
EndChar

StartChar: uni2538
Encoding: 188 9528 188
Width: 500
VWidth: 576
GlyphClass: 2
Flags: W
LayerCount: 2
Fore
SplineSet
500 100 m 1,0,-1
 0 100 l 1,1,-1
 0 200 l 1,2,-1
 100 200 l 1,3,-1
 100 700 l 1,4,-1
 300 700 l 1,5,-1
 300 200 l 1,6,-1
 500 200 l 1,7,-1
 500 100 l 1,0,-1
EndSplineSet
EndChar

StartChar: uni2539
Encoding: 189 9529 189
Width: 500
VWidth: 576
GlyphClass: 2
Flags: W
LayerCount: 2
Fore
SplineSet
500 100 m 1,0,-1
 0 100 l 1,1,-1
 0 300 l 1,2,-1
 100 300 l 1,3,-1
 100 700 l 1,4,-1
 300 700 l 1,5,-1
 300 200 l 1,6,-1
 500 200 l 1,7,-1
 500 100 l 1,0,-1
EndSplineSet
EndChar

StartChar: uni253A
Encoding: 190 9530 190
Width: 500
VWidth: 576
GlyphClass: 2
Flags: W
LayerCount: 2
Fore
SplineSet
500 100 m 1,0,-1
 0 100 l 1,1,-1
 0 200 l 1,2,-1
 100 200 l 1,3,-1
 100 700 l 1,4,-1
 300 700 l 1,5,-1
 300 300 l 1,6,-1
 500 300 l 1,7,-1
 500 100 l 1,0,-1
EndSplineSet
EndChar

StartChar: uni253B
Encoding: 191 9531 191
Width: 500
VWidth: 576
GlyphClass: 2
Flags: W
LayerCount: 2
Fore
SplineSet
500 100 m 1,0,-1
 0 100 l 1,1,-1
 0 300 l 1,2,-1
 100 300 l 1,3,-1
 100 700 l 1,4,-1
 300 700 l 1,5,-1
 300 300 l 1,6,-1
 500 300 l 1,7,-1
 500 100 l 1,0,-1
EndSplineSet
EndChar

StartChar: SF050000
Encoding: 192 9532 192
Width: 500
VWidth: 576
GlyphClass: 2
Flags: W
LayerCount: 2
Fore
SplineSet
300 -300 m 1,0,-1
 200 -300 l 1,1,-1
 200 100 l 1,2,-1
 0 100 l 1,3,-1
 0 200 l 1,4,-1
 200 200 l 1,5,-1
 200 700 l 1,6,-1
 300 700 l 1,7,-1
 300 200 l 1,8,-1
 500 200 l 1,9,-1
 500 100 l 1,10,-1
 300 100 l 1,11,-1
 300 -300 l 1,0,-1
EndSplineSet
EndChar

StartChar: uni253D
Encoding: 193 9533 193
Width: 500
VWidth: 576
GlyphClass: 2
Flags: W
LayerCount: 2
Fore
SplineSet
300 -300 m 1,0,-1
 200 -300 l 1,1,-1
 200 100 l 1,2,-1
 0 100 l 1,3,-1
 0 300 l 1,4,-1
 200 300 l 1,5,-1
 200 700 l 1,6,-1
 300 700 l 1,7,-1
 300 200 l 1,8,-1
 500 200 l 1,9,-1
 500 100 l 1,10,-1
 300 100 l 1,11,-1
 300 -300 l 1,0,-1
EndSplineSet
EndChar

StartChar: uni253E
Encoding: 194 9534 194
Width: 500
VWidth: 576
GlyphClass: 2
Flags: W
LayerCount: 2
Fore
SplineSet
300 -300 m 1,0,-1
 200 -300 l 1,1,-1
 200 100 l 1,2,-1
 0 100 l 1,3,-1
 0 200 l 1,4,-1
 200 200 l 1,5,-1
 200 700 l 1,6,-1
 300 700 l 1,7,-1
 300 300 l 1,8,-1
 500 300 l 1,9,-1
 500 100 l 1,10,-1
 300 100 l 1,11,-1
 300 -300 l 1,0,-1
EndSplineSet
EndChar

StartChar: uni253F
Encoding: 195 9535 195
Width: 500
VWidth: 576
GlyphClass: 2
Flags: W
LayerCount: 2
Fore
SplineSet
300 -300 m 1,0,-1
 200 -300 l 1,1,-1
 200 100 l 1,2,-1
 0 100 l 1,3,-1
 0 300 l 1,4,-1
 200 300 l 1,5,-1
 200 700 l 1,6,-1
 300 700 l 1,7,-1
 300 300 l 1,8,-1
 500 300 l 1,9,-1
 500 100 l 1,10,-1
 300 100 l 1,11,-1
 300 -300 l 1,0,-1
EndSplineSet
EndChar

StartChar: uni2540
Encoding: 196 9536 196
Width: 500
VWidth: 576
GlyphClass: 2
Flags: W
LayerCount: 2
Fore
SplineSet
300 -300 m 1,0,-1
 200 -300 l 1,1,-1
 200 100 l 1,2,-1
 0 100 l 1,3,-1
 0 200 l 1,4,-1
 100 200 l 1,5,-1
 100 700 l 1,6,-1
 300 700 l 1,7,-1
 300 200 l 1,8,-1
 500 200 l 1,9,-1
 500 100 l 1,10,-1
 300 100 l 1,11,-1
 300 -300 l 1,0,-1
EndSplineSet
EndChar

StartChar: uni2541
Encoding: 197 9537 197
Width: 500
VWidth: 576
GlyphClass: 2
Flags: W
LayerCount: 2
Fore
SplineSet
300 -300 m 1,0,-1
 100 -300 l 1,1,-1
 100 100 l 1,2,-1
 0 100 l 1,3,-1
 0 200 l 1,4,-1
 200 200 l 1,5,-1
 200 700 l 1,6,-1
 300 700 l 1,7,-1
 300 200 l 1,8,-1
 500 200 l 1,9,-1
 500 100 l 1,10,-1
 300 100 l 1,11,-1
 300 -300 l 1,0,-1
EndSplineSet
EndChar

StartChar: uni2542
Encoding: 198 9538 198
Width: 500
VWidth: 576
GlyphClass: 2
Flags: W
LayerCount: 2
Fore
SplineSet
300 700 m 1,0,-1
 300 200 l 1,1,-1
 500 200 l 1,2,-1
 500 100 l 1,3,-1
 300 100 l 1,4,-1
 300 -200 l 1,5,-1
 100 -200 l 1,6,-1
 100 100 l 1,7,-1
 0 100 l 1,8,-1
 0 200 l 1,9,-1
 100 200 l 1,10,-1
 100 700 l 1,11,-1
 300 700 l 1,0,-1
EndSplineSet
EndChar

StartChar: uni2543
Encoding: 199 9539 199
Width: 500
VWidth: 576
GlyphClass: 2
Flags: W
LayerCount: 2
Fore
SplineSet
300 -300 m 1,0,-1
 200 -300 l 1,1,-1
 200 100 l 1,2,-1
 0 100 l 1,3,-1
 0 300 l 1,4,-1
 100 300 l 1,5,-1
 100 700 l 1,6,-1
 300 700 l 1,7,-1
 300 200 l 1,8,-1
 500 200 l 1,9,-1
 500 100 l 1,10,-1
 300 100 l 1,11,-1
 300 -300 l 1,0,-1
EndSplineSet
EndChar

StartChar: uni2544
Encoding: 200 9540 200
Width: 500
VWidth: 576
GlyphClass: 2
Flags: W
LayerCount: 2
Fore
SplineSet
300 -300 m 1,0,-1
 200 -300 l 1,1,-1
 200 100 l 1,2,-1
 0 100 l 1,3,-1
 0 200 l 1,4,-1
 100 200 l 1,5,-1
 100 700 l 1,6,-1
 300 700 l 1,7,-1
 300 300 l 1,8,-1
 500 300 l 1,9,-1
 500 100 l 1,10,-1
 300 100 l 1,11,-1
 300 -300 l 1,0,-1
EndSplineSet
EndChar

StartChar: uni2545
Encoding: 201 9541 201
Width: 500
VWidth: 576
GlyphClass: 2
Flags: W
LayerCount: 2
Fore
SplineSet
300 -300 m 1,0,-1
 100 -300 l 1,1,-1
 100 100 l 1,2,-1
 0 100 l 1,3,-1
 0 300 l 1,4,-1
 200 300 l 1,5,-1
 200 700 l 1,6,-1
 300 700 l 1,7,-1
 300 200 l 1,8,-1
 500 200 l 1,9,-1
 500 100 l 1,10,-1
 300 100 l 1,11,-1
 300 -300 l 1,0,-1
EndSplineSet
EndChar

StartChar: uni2546
Encoding: 202 9542 202
Width: 500
VWidth: 576
GlyphClass: 2
Flags: W
LayerCount: 2
Fore
SplineSet
300 -300 m 1,0,-1
 100 -300 l 1,1,-1
 100 100 l 1,2,-1
 0 100 l 1,3,-1
 0 200 l 1,4,-1
 100 200 l 1,5,-1
 100 300 l 1,6,-1
 200 300 l 1,7,-1
 200 700 l 1,8,-1
 300 700 l 1,9,-1
 300 300 l 1,10,-1
 500 300 l 1,11,-1
 500 100 l 1,12,-1
 300 100 l 1,13,-1
 300 -300 l 1,0,-1
EndSplineSet
EndChar

StartChar: uni2547
Encoding: 203 9543 203
Width: 500
VWidth: 576
GlyphClass: 2
Flags: W
LayerCount: 2
Fore
SplineSet
300 -300 m 1,0,-1
 200 -300 l 1,1,-1
 200 100 l 1,2,-1
 0 100 l 1,3,-1
 0 300 l 1,4,-1
 100 300 l 1,5,-1
 100 700 l 1,6,-1
 300 700 l 1,7,-1
 300 300 l 1,8,-1
 500 300 l 1,9,-1
 500 100 l 1,10,-1
 300 100 l 1,11,-1
 300 -300 l 1,0,-1
EndSplineSet
EndChar

StartChar: uni2548
Encoding: 204 9544 204
Width: 500
VWidth: 576
GlyphClass: 2
Flags: W
LayerCount: 2
Fore
SplineSet
300 -300 m 1,0,-1
 100 -300 l 1,1,-1
 100 100 l 1,2,-1
 0 100 l 1,3,-1
 0 300 l 1,4,-1
 200 300 l 1,5,-1
 200 700 l 1,6,-1
 300 700 l 1,7,-1
 300 300 l 1,8,-1
 500 300 l 1,9,-1
 500 100 l 1,10,-1
 300 100 l 1,11,-1
 300 -300 l 1,0,-1
EndSplineSet
EndChar

StartChar: uni2549
Encoding: 205 9545 205
Width: 500
VWidth: 576
GlyphClass: 2
Flags: W
LayerCount: 2
Fore
SplineSet
300 -300 m 1,0,-1
 100 -300 l 1,1,-1
 100 100 l 1,2,-1
 0 100 l 1,3,-1
 0 300 l 1,4,-1
 100 300 l 1,5,-1
 100 700 l 1,6,-1
 300 700 l 1,7,-1
 300 200 l 1,8,-1
 500 200 l 1,9,-1
 500 100 l 1,10,-1
 300 100 l 1,11,-1
 300 -300 l 1,0,-1
EndSplineSet
EndChar

StartChar: uni254A
Encoding: 206 9546 206
Width: 500
VWidth: 576
GlyphClass: 2
Flags: W
LayerCount: 2
Fore
SplineSet
300 -300 m 1,0,-1
 100 -300 l 1,1,-1
 100 100 l 1,2,-1
 0 100 l 1,3,-1
 0 200 l 1,4,-1
 100 200 l 1,5,-1
 100 700 l 1,6,-1
 300 700 l 1,7,-1
 300 300 l 1,8,-1
 500 300 l 1,9,-1
 500 100 l 1,10,-1
 300 100 l 1,11,-1
 300 -300 l 1,0,-1
EndSplineSet
EndChar

StartChar: uni254B
Encoding: 207 9547 207
Width: 500
VWidth: 576
GlyphClass: 2
Flags: W
LayerCount: 2
Fore
SplineSet
300 -300 m 1,0,-1
 100 -300 l 1,1,-1
 100 100 l 1,2,-1
 0 100 l 1,3,-1
 0 300 l 1,4,-1
 100 300 l 1,5,-1
 100 700 l 1,6,-1
 300 700 l 1,7,-1
 300 300 l 1,8,-1
 500 300 l 1,9,-1
 500 100 l 1,10,-1
 300 100 l 1,11,-1
 300 -300 l 1,0,-1
EndSplineSet
EndChar

StartChar: uni254C
Encoding: 208 9548 208
Width: 500
VWidth: 576
GlyphClass: 2
Flags: W
LayerCount: 2
Fore
SplineSet
500 100 m 1,0,-1
 300 100 l 1,1,-1
 300 200 l 1,2,-1
 500 200 l 1,3,-1
 500 100 l 1,0,-1
100 100 m 1,4,-1
 100 200 l 1,5,-1
 200 200 l 1,6,-1
 200 100 l 1,7,-1
 100 100 l 1,4,-1
EndSplineSet
EndChar

StartChar: uni254D
Encoding: 209 9549 209
Width: 500
VWidth: 576
GlyphClass: 2
Flags: W
LayerCount: 2
Fore
SplineSet
500 100 m 1,0,-1
 300 100 l 1,1,-1
 300 300 l 1,2,-1
 500 300 l 1,3,-1
 500 100 l 1,0,-1
100 100 m 1,4,-1
 100 300 l 1,5,-1
 200 300 l 1,6,-1
 200 100 l 1,7,-1
 100 100 l 1,4,-1
EndSplineSet
EndChar

StartChar: uni254E
Encoding: 210 9550 210
Width: 500
VWidth: 576
GlyphClass: 2
Flags: W
LayerCount: 2
Fore
SplineSet
200 -200 m 1,0,-1
 200 100 l 1,1,-1
 300 100 l 1,2,-1
 300 -200 l 1,3,-1
 200 -200 l 1,0,-1
200 300 m 1,4,-1
 200 600 l 1,5,-1
 300 600 l 1,6,-1
 300 300 l 1,7,-1
 200 300 l 1,4,-1
EndSplineSet
EndChar

StartChar: uni254F
Encoding: 211 9551 211
Width: 500
VWidth: 576
GlyphClass: 2
Flags: W
LayerCount: 2
Fore
SplineSet
100 -200 m 1,0,-1
 100 100 l 1,1,-1
 300 100 l 1,2,-1
 300 -200 l 1,3,-1
 100 -200 l 1,0,-1
100 300 m 1,4,-1
 100 600 l 1,5,-1
 300 600 l 1,6,-1
 300 300 l 1,7,-1
 100 300 l 1,4,-1
EndSplineSet
EndChar

StartChar: SF430000
Encoding: 212 9552 212
Width: 500
VWidth: 576
GlyphClass: 2
Flags: W
LayerCount: 2
Fore
SplineSet
500 400 m 1,0,-1
 500 300 l 1,1,-1
 0 300 l 1,2,-1
 0 400 l 1,3,-1
 500 400 l 1,0,-1
500 0 m 1,4,-1
 0 0 l 1,5,-1
 0 100 l 1,6,-1
 500 100 l 1,7,-1
 500 0 l 1,4,-1
EndSplineSet
EndChar

StartChar: SF240000
Encoding: 213 9553 213
Width: 500
VWidth: 576
GlyphClass: 2
Flags: W
LayerCount: 2
Fore
SplineSet
300 700 m 1,0,-1
 400 700 l 1,1,-1
 400 -300 l 1,2,-1
 300 -300 l 1,3,-1
 300 700 l 1,0,-1
200 700 m 1,4,-1
 200 -300 l 1,5,-1
 100 -300 l 1,6,-1
 100 700 l 1,7,-1
 200 700 l 1,4,-1
EndSplineSet
EndChar

StartChar: SF510000
Encoding: 214 9554 214
Width: 500
VWidth: 576
GlyphClass: 2
Flags: W
LayerCount: 2
Fore
SplineSet
300 -300 m 1,0,-1
 200 -300 l 1,1,-1
 200 400 l 1,2,-1
 500 400 l 1,3,-1
 500 300 l 1,4,-1
 300 300 l 1,5,-1
 300 100 l 1,6,-1
 500 100 l 1,7,-1
 500 0 l 1,8,-1
 300 0 l 1,9,-1
 300 -300 l 1,0,-1
EndSplineSet
EndChar

StartChar: SF520000
Encoding: 215 9555 215
Width: 500
VWidth: 576
GlyphClass: 2
Flags: W
LayerCount: 2
Fore
SplineSet
200 100 m 1,0,-1
 200 -300 l 1,1,-1
 100 -300 l 1,2,-1
 100 200 l 1,3,-1
 500 200 l 1,4,-1
 500 100 l 1,5,-1
 400 100 l 1,6,-1
 400 -300 l 1,7,-1
 300 -300 l 1,8,-1
 300 100 l 1,9,-1
 200 100 l 1,0,-1
EndSplineSet
EndChar

StartChar: SF390000
Encoding: 216 9556 216
Width: 500
VWidth: 576
GlyphClass: 2
Flags: W
LayerCount: 2
Fore
SplineSet
500 300 m 1,0,-1
 200 300 l 1,1,-1
 200 -300 l 1,2,-1
 100 -300 l 1,3,-1
 100 400 l 1,4,-1
 500 400 l 1,5,-1
 500 300 l 1,0,-1
400 0 m 1,6,-1
 400 -300 l 1,7,-1
 300 -300 l 1,8,-1
 300 100 l 1,9,-1
 500 100 l 1,10,-1
 500 0 l 1,11,-1
 400 0 l 1,6,-1
EndSplineSet
EndChar

StartChar: SF220000
Encoding: 217 9557 217
Width: 500
VWidth: 576
GlyphClass: 2
Flags: W
LayerCount: 2
Fore
SplineSet
300 -300 m 1,0,-1
 200 -300 l 1,1,-1
 200 0 l 1,2,-1
 0 0 l 1,3,-1
 0 100 l 1,4,-1
 200 100 l 1,5,-1
 200 300 l 1,6,-1
 0 300 l 1,7,-1
 0 400 l 1,8,-1
 300 400 l 1,9,-1
 300 -300 l 1,0,-1
EndSplineSet
EndChar

StartChar: SF210000
Encoding: 218 9558 218
Width: 500
VWidth: 576
GlyphClass: 2
Flags: W
LayerCount: 2
Fore
SplineSet
100 -300 m 1,0,-1
 100 100 l 1,1,-1
 0 100 l 1,2,-1
 0 200 l 1,3,-1
 400 200 l 1,4,-1
 400 -300 l 1,5,-1
 300 -300 l 1,6,-1
 300 100 l 1,7,-1
 200 100 l 1,8,-1
 200 -300 l 1,9,-1
 100 -300 l 1,0,-1
EndSplineSet
EndChar

StartChar: SF250000
Encoding: 219 9559 219
Width: 500
VWidth: 576
GlyphClass: 2
Flags: W
LayerCount: 2
Fore
SplineSet
400 400 m 1,0,-1
 400 -300 l 1,1,-1
 300 -300 l 1,2,-1
 300 300 l 1,3,-1
 0 300 l 1,4,-1
 0 400 l 1,5,-1
 400 400 l 1,0,-1
200 100 m 1,6,-1
 200 -300 l 1,7,-1
 100 -300 l 1,8,-1
 100 0 l 1,9,-1
 0 0 l 1,10,-1
 0 100 l 1,11,-1
 200 100 l 1,6,-1
EndSplineSet
EndChar

StartChar: SF500000
Encoding: 220 9560 220
Width: 500
VWidth: 576
GlyphClass: 2
Flags: W
LayerCount: 2
Fore
SplineSet
500 0 m 1,0,-1
 200 0 l 1,1,-1
 200 700 l 1,2,-1
 300 700 l 1,3,-1
 300 400 l 1,4,-1
 500 400 l 1,5,-1
 500 300 l 1,6,-1
 300 300 l 1,7,-1
 300 100 l 1,8,-1
 500 100 l 1,9,-1
 500 0 l 1,0,-1
EndSplineSet
EndChar

StartChar: SF490000
Encoding: 221 9561 221
Width: 500
VWidth: 576
GlyphClass: 2
Flags: W
LayerCount: 2
Fore
SplineSet
300 700 m 1,0,-1
 400 700 l 1,1,-1
 400 200 l 1,2,-1
 500 200 l 1,3,-1
 500 100 l 1,4,-1
 100 100 l 1,5,-1
 100 700 l 1,6,-1
 200 700 l 1,7,-1
 200 200 l 1,8,-1
 300 200 l 1,9,-1
 300 700 l 1,0,-1
EndSplineSet
EndChar

StartChar: SF380000
Encoding: 222 9562 222
Width: 500
VWidth: 576
GlyphClass: 2
Flags: W
LayerCount: 2
Fore
SplineSet
300 700 m 1,0,-1
 400 700 l 1,1,-1
 400 400 l 1,2,-1
 500 400 l 1,3,-1
 500 300 l 1,4,-1
 300 300 l 1,5,-1
 300 700 l 1,0,-1
500 0 m 1,6,-1
 100 0 l 1,7,-1
 100 700 l 1,8,-1
 200 700 l 1,9,-1
 200 100 l 1,10,-1
 500 100 l 1,11,-1
 500 0 l 1,6,-1
EndSplineSet
EndChar

StartChar: SF280000
Encoding: 223 9563 223
Width: 500
VWidth: 576
GlyphClass: 2
Flags: W
LayerCount: 2
Fore
SplineSet
200 400 m 1,0,-1
 200 700 l 1,1,-1
 300 700 l 1,2,-1
 300 0 l 1,3,-1
 0 0 l 1,4,-1
 0 100 l 1,5,-1
 200 100 l 1,6,-1
 200 300 l 1,7,-1
 0 300 l 1,8,-1
 0 400 l 1,9,-1
 200 400 l 1,0,-1
EndSplineSet
EndChar

StartChar: SF270000
Encoding: 224 9564 224
Width: 500
VWidth: 576
GlyphClass: 2
Flags: W
LayerCount: 2
Fore
SplineSet
300 700 m 1,0,-1
 400 700 l 1,1,-1
 400 100 l 1,2,-1
 0 100 l 1,3,-1
 0 200 l 1,4,-1
 100 200 l 1,5,-1
 100 700 l 1,6,-1
 200 700 l 1,7,-1
 200 200 l 1,8,-1
 300 200 l 1,9,-1
 300 700 l 1,0,-1
EndSplineSet
EndChar

StartChar: SF260000
Encoding: 225 9565 225
Width: 500
VWidth: 576
GlyphClass: 2
Flags: W
LayerCount: 2
Fore
SplineSet
300 700 m 1,0,-1
 400 700 l 1,1,-1
 400 0 l 1,2,-1
 0 0 l 1,3,-1
 0 100 l 1,4,-1
 300 100 l 1,5,-1
 300 700 l 1,0,-1
200 700 m 1,6,-1
 200 300 l 1,7,-1
 0 300 l 1,8,-1
 0 400 l 1,9,-1
 100 400 l 1,10,-1
 100 700 l 1,11,-1
 200 700 l 1,6,-1
EndSplineSet
EndChar

StartChar: SF360000
Encoding: 226 9566 226
Width: 500
VWidth: 576
GlyphClass: 2
Flags: W
LayerCount: 2
Fore
SplineSet
300 -300 m 1,0,-1
 200 -300 l 1,1,-1
 200 700 l 1,2,-1
 300 700 l 1,3,-1
 300 400 l 1,4,-1
 500 400 l 1,5,-1
 500 300 l 1,6,-1
 300 300 l 1,7,-1
 300 100 l 1,8,-1
 500 100 l 1,9,-1
 500 0 l 1,10,-1
 300 0 l 1,11,-1
 300 -300 l 1,0,-1
EndSplineSet
EndChar

StartChar: SF370000
Encoding: 227 9567 227
Width: 500
VWidth: 576
GlyphClass: 2
Flags: W
LayerCount: 2
Fore
SplineSet
300 700 m 1,0,-1
 400 700 l 1,1,-1
 400 200 l 1,2,-1
 500 200 l 1,3,-1
 500 100 l 1,4,-1
 400 100 l 1,5,-1
 400 -300 l 1,6,-1
 300 -300 l 1,7,-1
 300 700 l 1,0,-1
200 700 m 1,8,-1
 200 -300 l 1,9,-1
 100 -300 l 1,10,-1
 100 700 l 1,11,-1
 200 700 l 1,8,-1
EndSplineSet
EndChar

StartChar: SF420000
Encoding: 228 9568 228
Width: 500
VWidth: 576
GlyphClass: 2
Flags: W
LayerCount: 2
Fore
SplineSet
300 700 m 1,0,-1
 400 700 l 1,1,-1
 400 400 l 1,2,-1
 500 400 l 1,3,-1
 500 300 l 1,4,-1
 300 300 l 1,5,-1
 300 700 l 1,0,-1
400 0 m 1,6,-1
 400 -300 l 1,7,-1
 300 -300 l 1,8,-1
 300 100 l 1,9,-1
 500 100 l 1,10,-1
 500 0 l 1,11,-1
 400 0 l 1,6,-1
200 700 m 1,12,-1
 200 -300 l 1,13,-1
 100 -300 l 1,14,-1
 100 700 l 1,15,-1
 200 700 l 1,12,-1
EndSplineSet
EndChar

StartChar: SF190000
Encoding: 229 9569 229
Width: 500
VWidth: 576
GlyphClass: 2
Flags: W
LayerCount: 2
Fore
SplineSet
300 -300 m 1,0,-1
 200 -300 l 1,1,-1
 200 0 l 1,2,-1
 0 0 l 1,3,-1
 0 100 l 1,4,-1
 200 100 l 1,5,-1
 200 300 l 1,6,-1
 0 300 l 1,7,-1
 0 400 l 1,8,-1
 200 400 l 1,9,-1
 200 700 l 1,10,-1
 300 700 l 1,11,-1
 300 -300 l 1,0,-1
EndSplineSet
EndChar

StartChar: SF200000
Encoding: 230 9570 230
Width: 500
VWidth: 576
GlyphClass: 2
Flags: W
LayerCount: 2
Fore
SplineSet
300 700 m 1,0,-1
 400 700 l 1,1,-1
 400 -300 l 1,2,-1
 300 -300 l 1,3,-1
 300 700 l 1,0,-1
100 200 m 1,4,-1
 100 700 l 1,5,-1
 200 700 l 1,6,-1
 200 -300 l 1,7,-1
 100 -300 l 1,8,-1
 100 100 l 1,9,-1
 0 100 l 1,10,-1
 0 200 l 1,11,-1
 100 200 l 1,4,-1
EndSplineSet
EndChar

StartChar: SF230000
Encoding: 231 9571 231
Width: 500
VWidth: 576
GlyphClass: 2
Flags: W
LayerCount: 2
Fore
SplineSet
300 700 m 1,0,-1
 400 700 l 1,1,-1
 400 -300 l 1,2,-1
 300 -300 l 1,3,-1
 300 700 l 1,0,-1
0 100 m 1,4,-1
 200 100 l 1,5,-1
 200 -300 l 1,6,-1
 100 -300 l 1,7,-1
 100 0 l 1,8,-1
 0 0 l 1,9,-1
 0 100 l 1,4,-1
200 700 m 1,10,-1
 200 300 l 1,11,-1
 0 300 l 1,12,-1
 0 400 l 1,13,-1
 100 400 l 1,14,-1
 100 700 l 1,15,-1
 200 700 l 1,10,-1
EndSplineSet
EndChar

StartChar: SF470000
Encoding: 232 9572 232
Width: 500
VWidth: 576
GlyphClass: 2
Flags: W
LayerCount: 2
Fore
SplineSet
300 -300 m 1,0,-1
 200 -300 l 1,1,-1
 200 0 l 1,2,-1
 0 0 l 1,3,-1
 0 100 l 1,4,-1
 500 100 l 1,5,-1
 500 0 l 1,6,-1
 300 0 l 1,7,-1
 300 -300 l 1,0,-1
500 400 m 1,8,-1
 500 300 l 1,9,-1
 0 300 l 1,10,-1
 0 400 l 1,11,-1
 500 400 l 1,8,-1
EndSplineSet
EndChar

StartChar: SF480000
Encoding: 233 9573 233
Width: 500
VWidth: 576
GlyphClass: 2
Flags: W
LayerCount: 2
Fore
SplineSet
500 200 m 1,0,-1
 500 100 l 1,1,-1
 400 100 l 1,2,-1
 400 -300 l 1,3,-1
 300 -300 l 1,4,-1
 300 100 l 1,5,-1
 200 100 l 1,6,-1
 200 -300 l 1,7,-1
 100 -300 l 1,8,-1
 100 100 l 1,9,-1
 0 100 l 1,10,-1
 0 200 l 1,11,-1
 500 200 l 1,0,-1
EndSplineSet
EndChar

StartChar: SF410000
Encoding: 234 9574 234
Width: 500
VWidth: 576
GlyphClass: 2
Flags: W
LayerCount: 2
Fore
SplineSet
500 300 m 1,0,-1
 0 300 l 1,1,-1
 0 400 l 1,2,-1
 500 400 l 1,3,-1
 500 300 l 1,0,-1
400 0 m 1,4,-1
 400 -300 l 1,5,-1
 300 -300 l 1,6,-1
 300 100 l 1,7,-1
 500 100 l 1,8,-1
 500 0 l 1,9,-1
 400 0 l 1,4,-1
200 100 m 1,10,-1
 200 -300 l 1,11,-1
 100 -300 l 1,12,-1
 100 0 l 1,13,-1
 0 0 l 1,14,-1
 0 100 l 1,15,-1
 200 100 l 1,10,-1
EndSplineSet
EndChar

StartChar: SF450000
Encoding: 235 9575 235
Width: 500
VWidth: 576
GlyphClass: 2
Flags: W
LayerCount: 2
Fore
SplineSet
500 0 m 1,0,-1
 0 0 l 1,1,-1
 0 100 l 1,2,-1
 500 100 l 1,3,-1
 500 0 l 1,0,-1
200 400 m 1,4,-1
 200 700 l 1,5,-1
 300 700 l 1,6,-1
 300 400 l 1,7,-1
 500 400 l 1,8,-1
 500 300 l 1,9,-1
 0 300 l 1,10,-1
 0 400 l 1,11,-1
 200 400 l 1,4,-1
EndSplineSet
EndChar

StartChar: SF460000
Encoding: 236 9576 236
Width: 500
VWidth: 576
GlyphClass: 2
Flags: W
LayerCount: 2
Fore
SplineSet
300 700 m 1,0,-1
 400 700 l 1,1,-1
 400 200 l 1,2,-1
 500 200 l 1,3,-1
 500 100 l 1,4,-1
 0 100 l 1,5,-1
 0 200 l 1,6,-1
 100 200 l 1,7,-1
 100 700 l 1,8,-1
 200 700 l 1,9,-1
 200 200 l 1,10,-1
 300 200 l 1,11,-1
 300 700 l 1,0,-1
EndSplineSet
EndChar

StartChar: SF400000
Encoding: 237 9577 237
Width: 500
VWidth: 576
GlyphClass: 2
Flags: W
LayerCount: 2
Fore
SplineSet
300 700 m 1,0,-1
 400 700 l 1,1,-1
 400 400 l 1,2,-1
 500 400 l 1,3,-1
 500 300 l 1,4,-1
 300 300 l 1,5,-1
 300 700 l 1,0,-1
500 0 m 1,6,-1
 0 0 l 1,7,-1
 0 100 l 1,8,-1
 500 100 l 1,9,-1
 500 0 l 1,6,-1
200 700 m 1,10,-1
 200 300 l 1,11,-1
 0 300 l 1,12,-1
 0 400 l 1,13,-1
 100 400 l 1,14,-1
 100 700 l 1,15,-1
 200 700 l 1,10,-1
EndSplineSet
EndChar

StartChar: SF540000
Encoding: 238 9578 238
Width: 500
VWidth: 576
GlyphClass: 2
Flags: W
LayerCount: 2
Fore
SplineSet
300 -300 m 1,0,-1
 200 -300 l 1,1,-1
 200 0 l 1,2,-1
 0 0 l 1,3,-1
 0 100 l 1,4,-1
 200 100 l 1,5,-1
 200 300 l 1,6,-1
 0 300 l 1,7,-1
 0 400 l 1,8,-1
 200 400 l 1,9,-1
 200 700 l 1,10,-1
 300 700 l 1,11,-1
 300 400 l 1,12,-1
 500 400 l 1,13,-1
 500 300 l 1,14,-1
 300 300 l 1,15,-1
 300 100 l 1,16,-1
 500 100 l 1,17,-1
 500 0 l 1,18,-1
 300 0 l 1,19,-1
 300 -300 l 1,0,-1
EndSplineSet
EndChar

StartChar: SF530000
Encoding: 239 9579 239
Width: 500
VWidth: 576
GlyphClass: 2
Flags: W
LayerCount: 2
Fore
SplineSet
300 700 m 1,0,-1
 400 700 l 1,1,-1
 400 200 l 1,2,-1
 500 200 l 1,3,-1
 500 100 l 1,4,-1
 400 100 l 1,5,-1
 400 -300 l 1,6,-1
 300 -300 l 1,7,-1
 300 100 l 1,8,-1
 200 100 l 1,9,-1
 200 -300 l 1,10,-1
 100 -300 l 1,11,-1
 100 100 l 1,12,-1
 0 100 l 1,13,-1
 0 200 l 1,14,-1
 100 200 l 1,15,-1
 100 700 l 1,16,-1
 200 700 l 1,17,-1
 200 200 l 1,18,-1
 300 200 l 1,19,-1
 300 700 l 1,0,-1
EndSplineSet
EndChar

StartChar: SF440000
Encoding: 240 9580 240
Width: 500
VWidth: 576
GlyphClass: 2
Flags: W
LayerCount: 2
Fore
SplineSet
300 700 m 1,0,-1
 400 700 l 1,1,-1
 400 400 l 1,2,-1
 500 400 l 1,3,-1
 500 300 l 1,4,-1
 300 300 l 1,5,-1
 300 700 l 1,0,-1
100 400 m 1,6,-1
 100 700 l 1,7,-1
 200 700 l 1,8,-1
 200 300 l 1,9,-1
 0 300 l 1,10,-1
 0 400 l 1,11,-1
 100 400 l 1,6,-1
400 0 m 1,12,-1
 400 -300 l 1,13,-1
 300 -300 l 1,14,-1
 300 100 l 1,15,-1
 500 100 l 1,16,-1
 500 0 l 1,17,-1
 400 0 l 1,12,-1
200 100 m 1,18,-1
 200 -300 l 1,19,-1
 100 -300 l 1,20,-1
 100 0 l 1,21,-1
 0 0 l 1,22,-1
 0 100 l 1,23,-1
 200 100 l 1,18,-1
EndSplineSet
EndChar

StartChar: uni256D
Encoding: 241 9581 241
Width: 500
VWidth: 576
GlyphClass: 2
Flags: W
LayerCount: 2
Fore
SplineSet
500 200 m 1,0,-1
 500 100 l 1,1,-1
 400 100 l 1,2,-1
 400 0 l 1,3,-1
 300 0 l 1,4,-1
 300 -300 l 1,5,-1
 200 -300 l 1,6,-1
 200 100 l 1,7,-1
 300 100 l 1,8,-1
 300 200 l 1,9,-1
 500 200 l 1,0,-1
EndSplineSet
EndChar

StartChar: uni256E
Encoding: 242 9582 242
Width: 500
VWidth: 576
GlyphClass: 2
Flags: W
LayerCount: 2
Fore
SplineSet
0 100 m 1,0,-1
 0 200 l 1,1,-1
 200 200 l 1,2,-1
 200 100 l 1,3,-1
 300 100 l 1,4,-1
 300 -300 l 1,5,-1
 200 -300 l 1,6,-1
 200 0 l 1,7,-1
 100 0 l 1,8,-1
 100 100 l 1,9,-1
 0 100 l 1,0,-1
EndSplineSet
EndChar

StartChar: uni256F
Encoding: 243 9583 243
Width: 500
VWidth: 576
GlyphClass: 2
Flags: W
LayerCount: 2
Fore
SplineSet
300 700 m 1,0,-1
 300 200 l 1,1,-1
 200 200 l 1,2,-1
 200 100 l 1,3,-1
 0 100 l 1,4,-1
 0 200 l 1,5,-1
 100 200 l 1,6,-1
 100 300 l 1,7,-1
 200 300 l 1,8,-1
 200 700 l 1,9,-1
 300 700 l 1,0,-1
EndSplineSet
EndChar

StartChar: uni2570
Encoding: 244 9584 244
Width: 500
VWidth: 576
GlyphClass: 2
Flags: W
LayerCount: 2
Fore
SplineSet
500 100 m 1,0,-1
 300 100 l 1,1,-1
 300 200 l 1,2,-1
 200 200 l 1,3,-1
 200 700 l 1,4,-1
 300 700 l 1,5,-1
 300 300 l 1,6,-1
 400 300 l 1,7,-1
 400 200 l 1,8,-1
 500 200 l 1,9,-1
 500 100 l 1,0,-1
EndSplineSet
EndChar

StartChar: uni2571
Encoding: 245 9585 245
Width: 500
VWidth: 576
GlyphClass: 2
Flags: W
LayerCount: 2
Fore
SplineSet
500 700 m 1,0,-1
 500 500 l 1,1,-1
 400 500 l 1,2,-1
 400 700 l 1,3,-1
 500 700 l 1,0,-1
100 -100 m 1,4,-1
 100 -300 l 1,5,-1
 0 -300 l 1,6,-1
 0 -100 l 1,7,-1
 100 -100 l 1,4,-1
100 -100 m 1,8,-1
 100 100 l 1,9,-1
 200 100 l 1,10,-1
 200 -100 l 1,11,-1
 100 -100 l 1,8,-1
200 100 m 1,12,-1
 200 300 l 1,13,-1
 300 300 l 1,14,-1
 300 500 l 1,15,-1
 400 500 l 1,16,-1
 400 300 l 1,17,-1
 300 300 l 1,18,-1
 300 100 l 1,19,-1
 200 100 l 1,12,-1
EndSplineSet
EndChar

StartChar: uni2572
Encoding: 246 9586 246
Width: 500
VWidth: 576
GlyphClass: 2
Flags: W
LayerCount: 2
Fore
SplineSet
0 500 m 1,0,-1
 0 700 l 1,1,-1
 100 700 l 1,2,-1
 100 500 l 1,3,-1
 0 500 l 1,0,-1
100 500 m 1,4,-1
 200 500 l 1,5,-1
 200 300 l 1,6,-1
 100 300 l 1,7,-1
 100 500 l 1,4,-1
200 300 m 1,8,-1
 300 300 l 1,9,-1
 300 100 l 1,10,-1
 200 100 l 1,11,-1
 200 300 l 1,8,-1
400 -100 m 1,12,-1
 500 -100 l 1,13,-1
 500 -300 l 1,14,-1
 400 -300 l 1,15,-1
 400 -100 l 1,12,-1
400 -100 m 1,16,-1
 300 -100 l 1,17,-1
 300 100 l 1,18,-1
 400 100 l 1,19,-1
 400 -100 l 1,16,-1
EndSplineSet
EndChar

StartChar: uni2573
Encoding: 247 9587 247
Width: 500
VWidth: 576
GlyphClass: 2
Flags: W
LayerCount: 2
Fore
SplineSet
500 700 m 1,0,-1
 500 500 l 1,1,-1
 400 500 l 1,2,-1
 400 700 l 1,3,-1
 500 700 l 1,0,-1
500 -100 m 1,4,-1
 500 -300 l 1,5,-1
 400 -300 l 1,6,-1
 400 -100 l 1,7,-1
 500 -100 l 1,4,-1
100 -100 m 1,8,-1
 100 100 l 1,9,-1
 200 100 l 1,10,-1
 200 -100 l 1,11,-1
 100 -100 l 1,8,-1
100 -100 m 1,12,-1
 100 -300 l 1,13,-1
 0 -300 l 1,14,-1
 0 -100 l 1,15,-1
 100 -100 l 1,12,-1
400 500 m 1,16,-1
 400 300 l 1,17,-1
 300 300 l 1,18,-1
 300 500 l 1,19,-1
 400 500 l 1,16,-1
300 300 m 1,20,-1
 300 100 l 1,21,-1
 400 100 l 1,22,-1
 400 -100 l 1,23,-1
 300 -100 l 1,24,-1
 300 100 l 1,25,-1
 200 100 l 1,26,-1
 200 300 l 1,27,-1
 300 300 l 1,20,-1
100 500 m 1,28,-1
 200 500 l 1,29,-1
 200 300 l 1,30,-1
 100 300 l 1,31,-1
 100 500 l 1,28,-1
100 500 m 1,32,-1
 0 500 l 1,33,-1
 0 700 l 1,34,-1
 100 700 l 1,35,-1
 100 500 l 1,32,-1
EndSplineSet
EndChar

StartChar: uni2574
Encoding: 248 9588 248
Width: 500
VWidth: 576
GlyphClass: 2
Flags: W
LayerCount: 2
Fore
SplineSet
0 200 m 1,0,-1
 300 200 l 1,1,-1
 300 100 l 1,2,-1
 0 100 l 1,3,-1
 0 200 l 1,0,-1
EndSplineSet
EndChar

StartChar: uni2575
Encoding: 249 9589 249
Width: 500
VWidth: 576
GlyphClass: 2
Flags: W
LayerCount: 2
Fore
SplineSet
300 700 m 1,0,-1
 300 100 l 1,1,-1
 200 100 l 1,2,-1
 200 700 l 1,3,-1
 300 700 l 1,0,-1
EndSplineSet
EndChar

StartChar: uni2576
Encoding: 250 9590 250
Width: 500
VWidth: 576
GlyphClass: 2
Flags: W
LayerCount: 2
Fore
SplineSet
500 100 m 1,0,-1
 200 100 l 1,1,-1
 200 200 l 1,2,-1
 500 200 l 1,3,-1
 500 100 l 1,0,-1
EndSplineSet
EndChar

StartChar: uni2577
Encoding: 251 9591 251
Width: 500
VWidth: 576
GlyphClass: 2
Flags: W
LayerCount: 2
Fore
SplineSet
300 -300 m 1,0,-1
 200 -300 l 1,1,-1
 200 200 l 1,2,-1
 300 200 l 1,3,-1
 300 -300 l 1,0,-1
EndSplineSet
EndChar

StartChar: uni2578
Encoding: 252 9592 252
Width: 500
VWidth: 576
GlyphClass: 2
Flags: W
LayerCount: 2
Fore
SplineSet
0 300 m 1,0,-1
 300 300 l 1,1,-1
 300 100 l 1,2,-1
 0 100 l 1,3,-1
 0 300 l 1,0,-1
EndSplineSet
EndChar

StartChar: uni2579
Encoding: 253 9593 253
Width: 500
VWidth: 576
GlyphClass: 2
Flags: W
LayerCount: 2
Fore
SplineSet
300 700 m 1,0,-1
 300 100 l 1,1,-1
 100 100 l 1,2,-1
 100 700 l 1,3,-1
 300 700 l 1,0,-1
EndSplineSet
EndChar

StartChar: uni257A
Encoding: 254 9594 254
Width: 500
VWidth: 576
GlyphClass: 2
Flags: W
LayerCount: 2
Fore
SplineSet
500 100 m 1,0,-1
 200 100 l 1,1,-1
 200 300 l 1,2,-1
 500 300 l 1,3,-1
 500 100 l 1,0,-1
EndSplineSet
EndChar

StartChar: uni257B
Encoding: 255 9595 255
Width: 500
VWidth: 576
GlyphClass: 2
Flags: W
LayerCount: 2
Fore
SplineSet
300 -300 m 1,0,-1
 100 -300 l 1,1,-1
 100 200 l 1,2,-1
 300 200 l 1,3,-1
 300 -300 l 1,0,-1
EndSplineSet
EndChar

StartChar: uni257C
Encoding: 256 9596 256
Width: 500
VWidth: 576
GlyphClass: 2
Flags: W
LayerCount: 2
Fore
SplineSet
500 100 m 1,0,-1
 0 100 l 1,1,-1
 0 200 l 1,2,-1
 200 200 l 1,3,-1
 200 300 l 1,4,-1
 500 300 l 1,5,-1
 500 100 l 1,0,-1
EndSplineSet
EndChar

StartChar: uni257D
Encoding: 257 9597 257
Width: 500
VWidth: 576
GlyphClass: 2
Flags: W
LayerCount: 2
Fore
SplineSet
300 -300 m 1,0,-1
 100 -300 l 1,1,-1
 100 200 l 1,2,-1
 200 200 l 1,3,-1
 200 700 l 1,4,-1
 300 700 l 1,5,-1
 300 -300 l 1,0,-1
EndSplineSet
EndChar

StartChar: uni257E
Encoding: 258 9598 258
Width: 500
VWidth: 576
GlyphClass: 2
Flags: W
LayerCount: 2
Fore
SplineSet
500 100 m 1,0,-1
 0 100 l 1,1,-1
 0 300 l 1,2,-1
 300 300 l 1,3,-1
 300 200 l 1,4,-1
 500 200 l 1,5,-1
 500 100 l 1,0,-1
EndSplineSet
EndChar

StartChar: uni257F
Encoding: 259 9599 259
Width: 500
VWidth: 576
GlyphClass: 2
Flags: W
LayerCount: 2
Fore
SplineSet
300 -300 m 1,0,-1
 200 -300 l 1,1,-1
 200 100 l 1,2,-1
 100 100 l 1,3,-1
 100 700 l 1,4,-1
 300 700 l 1,5,-1
 300 -300 l 1,0,-1
EndSplineSet
EndChar

StartChar: upblock
Encoding: 260 9600 260
Width: 500
VWidth: 576
GlyphClass: 2
Flags: W
LayerCount: 2
Fore
SplineSet
500 200 m 1,0,-1
 0 200 l 1,1,-1
 0 700 l 1,2,-1
 500 700 l 1,3,-1
 500 200 l 1,0,-1
EndSplineSet
EndChar

StartChar: uni2581
Encoding: 261 9601 261
Width: 500
VWidth: 576
GlyphClass: 2
Flags: W
LayerCount: 2
Fore
SplineSet
0 -100 m 1,0,-1
 500 -100 l 1,1,-1
 500 -200 l 1,2,-1
 0 -200 l 1,3,-1
 0 -100 l 1,0,-1
EndSplineSet
EndChar

StartChar: uni2582
Encoding: 262 9602 262
Width: 500
VWidth: 576
GlyphClass: 2
Flags: W
LayerCount: 2
Fore
SplineSet
0 0 m 1,0,-1
 500 0 l 1,1,-1
 500 -200 l 1,2,-1
 0 -200 l 1,3,-1
 0 0 l 1,0,-1
EndSplineSet
EndChar

StartChar: uni2583
Encoding: 263 9603 263
Width: 500
VWidth: 576
GlyphClass: 2
Flags: W
LayerCount: 2
Fore
SplineSet
0 100 m 1,0,-1
 500 100 l 1,1,-1
 500 -200 l 1,2,-1
 0 -200 l 1,3,-1
 0 100 l 1,0,-1
EndSplineSet
EndChar

StartChar: dnblock
Encoding: 264 9604 264
Width: 500
VWidth: 576
GlyphClass: 2
Flags: W
LayerCount: 2
Fore
SplineSet
0 200 m 1,0,-1
 500 200 l 1,1,-1
 500 -200 l 1,2,-1
 0 -200 l 1,3,-1
 0 200 l 1,0,-1
EndSplineSet
EndChar

StartChar: uni2585
Encoding: 265 9605 265
Width: 500
VWidth: 576
GlyphClass: 2
Flags: W
LayerCount: 2
Fore
SplineSet
0 300 m 1,0,-1
 500 300 l 1,1,-1
 500 -200 l 1,2,-1
 0 -200 l 1,3,-1
 0 300 l 1,0,-1
EndSplineSet
EndChar

StartChar: uni2586
Encoding: 266 9606 266
Width: 500
VWidth: 576
GlyphClass: 2
Flags: W
LayerCount: 2
Fore
SplineSet
0 400 m 1,0,-1
 500 400 l 1,1,-1
 500 -200 l 1,2,-1
 0 -200 l 1,3,-1
 0 400 l 1,0,-1
EndSplineSet
EndChar

StartChar: uni2587
Encoding: 267 9607 267
Width: 500
VWidth: 576
GlyphClass: 2
Flags: W
LayerCount: 2
Fore
SplineSet
0 500 m 1,0,-1
 500 500 l 1,1,-1
 500 -200 l 1,2,-1
 0 -200 l 1,3,-1
 0 500 l 1,0,-1
EndSplineSet
EndChar

StartChar: block
Encoding: 268 9608 268
Width: 500
VWidth: 576
GlyphClass: 2
Flags: W
LayerCount: 2
Fore
SplineSet
500 -200 m 1,0,-1
 0 -200 l 1,1,-1
 0 600 l 1,2,-1
 500 600 l 1,3,-1
 500 -200 l 1,0,-1
EndSplineSet
EndChar

StartChar: uni2589
Encoding: 269 9609 269
Width: 500
VWidth: 576
GlyphClass: 2
Flags: W
LayerCount: 2
Fore
SplineSet
400 100 m 1,0,-1
 500 100 l 1,1,-1
 500 -200 l 1,2,-1
 0 -200 l 1,3,-1
 0 600 l 1,4,-1
 400 600 l 1,5,-1
 400 100 l 1,0,-1
EndSplineSet
EndChar

StartChar: uni258A
Encoding: 270 9610 270
Width: 500
VWidth: 576
GlyphClass: 2
Flags: W
LayerCount: 2
Fore
SplineSet
400 -200 m 1,0,-1
 0 -200 l 1,1,-1
 0 600 l 1,2,-1
 300 600 l 1,3,-1
 300 400 l 1,4,-1
 400 400 l 1,5,-1
 400 -200 l 1,0,-1
EndSplineSet
EndChar

StartChar: uni258B
Encoding: 271 9611 271
Width: 500
VWidth: 576
GlyphClass: 2
Flags: W
LayerCount: 2
Fore
SplineSet
400 -200 m 1,0,-1
 0 -200 l 1,1,-1
 0 600 l 1,2,-1
 300 600 l 1,3,-1
 300 -100 l 1,4,-1
 400 -100 l 1,5,-1
 400 -200 l 1,0,-1
EndSplineSet
EndChar

StartChar: lfblock
Encoding: 272 9612 272
Width: 500
VWidth: 576
GlyphClass: 2
Flags: W
LayerCount: 2
Fore
SplineSet
300 -200 m 1,0,-1
 0 -200 l 1,1,-1
 0 600 l 1,2,-1
 200 600 l 1,3,-1
 200 200 l 1,4,-1
 300 200 l 1,5,-1
 300 -200 l 1,0,-1
EndSplineSet
EndChar

StartChar: uni258D
Encoding: 273 9613 273
Width: 500
VWidth: 576
GlyphClass: 2
Flags: W
LayerCount: 2
Fore
SplineSet
200 -200 m 1,0,-1
 0 -200 l 1,1,-1
 0 600 l 1,2,-1
 100 600 l 1,3,-1
 100 500 l 1,4,-1
 200 500 l 1,5,-1
 200 -200 l 1,0,-1
EndSplineSet
EndChar

StartChar: uni258E
Encoding: 274 9614 274
Width: 500
VWidth: 576
GlyphClass: 2
Flags: W
LayerCount: 2
Fore
SplineSet
200 -200 m 1,0,-1
 0 -200 l 1,1,-1
 0 600 l 1,2,-1
 100 600 l 1,3,-1
 100 0 l 1,4,-1
 200 0 l 1,5,-1
 200 -200 l 1,0,-1
EndSplineSet
EndChar

StartChar: uni258F
Encoding: 275 9615 275
Width: 500
VWidth: 576
GlyphClass: 2
Flags: W
LayerCount: 2
Fore
SplineSet
100 -200 m 1,0,-1
 0 -200 l 1,1,-1
 0 300 l 1,2,-1
 100 300 l 1,3,-1
 100 -200 l 1,0,-1
EndSplineSet
EndChar

StartChar: rtblock
Encoding: 276 9616 276
Width: 500
VWidth: 576
GlyphClass: 2
Flags: W
LayerCount: 2
Fore
SplineSet
500 -200 m 1,0,-1
 300 -200 l 1,1,-1
 300 200 l 1,2,-1
 200 200 l 1,3,-1
 200 600 l 1,4,-1
 500 600 l 1,5,-1
 500 -200 l 1,0,-1
EndSplineSet
EndChar

StartChar: ltshade
Encoding: 277 9617 277
Width: 500
VWidth: 576
GlyphClass: 2
Flags: W
LayerCount: 2
Fore
SplineSet
200 600 m 1,0,-1
 100 600 l 1,1,-1
 100 700 l 1,2,-1
 200 700 l 1,3,-1
 200 600 l 1,0,-1
500 500 m 1,4,-1
 400 500 l 1,5,-1
 400 600 l 1,6,-1
 500 600 l 1,7,-1
 500 500 l 1,4,-1
300 400 m 1,8,-1
 200 400 l 1,9,-1
 200 500 l 1,10,-1
 300 500 l 1,11,-1
 300 400 l 1,8,-1
100 300 m 1,12,-1
 0 300 l 1,13,-1
 0 400 l 1,14,-1
 100 400 l 1,15,-1
 100 300 l 1,12,-1
400 200 m 1,16,-1
 300 200 l 1,17,-1
 300 300 l 1,18,-1
 400 300 l 1,19,-1
 400 200 l 1,16,-1
200 100 m 1,20,-1
 100 100 l 1,21,-1
 100 200 l 1,22,-1
 200 200 l 1,23,-1
 200 100 l 1,20,-1
500 0 m 1,24,-1
 400 0 l 1,25,-1
 400 100 l 1,26,-1
 500 100 l 1,27,-1
 500 0 l 1,24,-1
300 -100 m 1,28,-1
 200 -100 l 1,29,-1
 200 0 l 1,30,-1
 300 0 l 1,31,-1
 300 -100 l 1,28,-1
400 -300 m 1,32,-1
 300 -300 l 1,33,-1
 300 -200 l 1,34,-1
 400 -200 l 1,35,-1
 400 -300 l 1,32,-1
100 -200 m 1,36,-1
 0 -200 l 1,37,-1
 0 -100 l 1,38,-1
 100 -100 l 1,39,-1
 100 -200 l 1,36,-1
EndSplineSet
EndChar

StartChar: shade
Encoding: 278 9618 278
Width: 500
VWidth: 576
GlyphClass: 2
Flags: W
LayerCount: 2
Fore
SplineSet
500 600 m 1,0,-1
 500 700 l 1,1,-1
200 700 m 1,2,-1
 200 600 l 1,3,-1
 0 600 l 1,4,-1
 0 700 l 1,5,-1
 200 700 l 1,2,-1
500 600 m 1,6,-1
 500 500 l 1,7,-1
 300 500 l 1,8,-1
 300 600 l 1,9,-1
 500 600 l 1,6,-1
500 400 m 1,10,-1
 500 300 l 1,11,-1
 400 300 l 1,12,-1
 400 400 l 1,13,-1
 500 400 l 1,10,-1
500 100 m 1,14,-1
 500 0 l 1,15,-1
 300 0 l 1,16,-1
 300 100 l 1,17,-1
 500 100 l 1,14,-1
500 -100 m 1,18,-1
 500 -200 l 1,19,-1
 400 -200 l 1,20,-1
 400 -100 l 1,21,-1
 500 -100 l 1,18,-1
300 500 m 1,22,-1
 300 400 l 1,23,-1
 100 400 l 1,24,-1
 100 500 l 1,25,-1
 300 500 l 1,22,-1
400 300 m 1,26,-1
 400 200 l 1,27,-1
 200 200 l 1,28,-1
 200 300 l 1,29,-1
 400 300 l 1,26,-1
200 200 m 1,30,-1
 200 100 l 1,31,-1
 0 100 l 1,32,-1
 0 200 l 1,33,-1
 200 200 l 1,30,-1
300 0 m 1,34,-1
 300 -100 l 1,35,-1
 100 -100 l 1,36,-1
 100 0 l 1,37,-1
 300 0 l 1,34,-1
400 -200 m 1,38,-1
 400 -300 l 1,39,-1
 200 -300 l 1,40,-1
 200 -200 l 1,41,-1
 400 -200 l 1,38,-1
100 -100 m 1,42,-1
 100 -200 l 1,43,-1
 0 -200 l 1,44,-1
 0 -100 l 1,45,-1
 100 -100 l 1,42,-1
100 400 m 1,46,-1
 100 300 l 1,47,-1
 0 300 l 1,48,-1
 0 400 l 1,49,-1
 100 400 l 1,46,-1
EndSplineSet
EndChar

StartChar: dkshade
Encoding: 279 9619 279
Width: 500
VWidth: 576
GlyphClass: 2
Flags: W
LayerCount: 2
Fore
SplineSet
200 100 m 1,0,-1
 300 100 l 1,1,-1
 300 200 l 1,2,-1
 200 200 l 1,3,-1
 200 100 l 1,0,-1
300 -100 m 1,4,-1
 400 -100 l 1,5,-1
 400 0 l 1,6,-1
 300 0 l 1,7,-1
 300 -100 l 1,4,-1
100 300 m 1,8,-1
 200 300 l 1,9,-1
 200 400 l 1,10,-1
 100 400 l 1,11,-1
 100 300 l 1,8,-1
100 -200 m 1,12,-1
 200 -200 l 1,13,-1
 200 -100 l 1,14,-1
 100 -100 l 1,15,-1
 100 -200 l 1,12,-1
400 400 m 1,16,-1
 400 500 l 1,17,-1
 300 500 l 1,18,-1
 300 400 l 1,19,-1
 400 400 l 1,16,-1
400 -300 m 1,20,-1
 0 -300 l 1,21,-1
 0 0 l 1,22,-1
 100 0 l 1,23,-1
 100 100 l 1,24,-1
 0 100 l 1,25,-1
 0 500 l 1,26,-1
 100 500 l 1,27,-1
 100 600 l 1,28,-1
 0 600 l 1,29,-1
 0 700 l 1,30,-1
 200 700 l 1,31,-1
 200 600 l 1,32,-1
 300 600 l 1,33,-1
 300 700 l 1,34,-1
 500 700 l 1,35,-1
 500 300 l 1,36,-1
 400 300 l 1,37,-1
 400 200 l 1,38,-1
 500 200 l 1,39,-1
 500 -200 l 1,40,-1
 400 -200 l 1,41,-1
 400 -300 l 1,20,-1
EndSplineSet
EndChar

StartChar: uni2594
Encoding: 280 9620 280
Width: 500
VWidth: 576
GlyphClass: 2
Flags: W
LayerCount: 2
Fore
SplineSet
500 500 m 1,0,-1
 0 500 l 1,1,-1
 0 600 l 1,2,-1
 500 600 l 1,3,-1
 500 500 l 1,0,-1
EndSplineSet
EndChar

StartChar: uni2595
Encoding: 281 9621 281
Width: 500
VWidth: 576
GlyphClass: 2
Flags: W
LayerCount: 2
Fore
SplineSet
500 100 m 1,0,-1
 400 100 l 1,1,-1
 400 600 l 1,2,-1
 500 600 l 1,3,-1
 500 100 l 1,0,-1
EndSplineSet
EndChar

StartChar: uni2596
Encoding: 282 9622 282
Width: 500
VWidth: 576
GlyphClass: 2
Flags: W
LayerCount: 2
Fore
SplineSet
300 -300 m 1,0,-1
 0 -300 l 1,1,-1
 0 200 l 1,2,-1
 300 200 l 1,3,-1
 300 -300 l 1,0,-1
EndSplineSet
EndChar

StartChar: uni2597
Encoding: 283 9623 283
Width: 500
VWidth: 576
GlyphClass: 2
Flags: W
LayerCount: 2
Fore
SplineSet
200 -300 m 1,0,-1
 200 200 l 1,1,-1
 500 200 l 1,2,-1
 500 -300 l 1,3,-1
 200 -300 l 1,0,-1
EndSplineSet
EndChar

StartChar: uni2598
Encoding: 284 9624 284
Width: 500
VWidth: 576
GlyphClass: 2
Flags: W
LayerCount: 2
Fore
SplineSet
300 700 m 1,0,-1
 300 200 l 1,1,-1
 0 200 l 1,2,-1
 0 700 l 1,3,-1
 300 700 l 1,0,-1
EndSplineSet
EndChar

StartChar: uni2599
Encoding: 285 9625 285
Width: 500
VWidth: 576
GlyphClass: 2
Flags: W
LayerCount: 2
Fore
SplineSet
300 700 m 1,0,-1
 300 200 l 1,1,-1
 500 200 l 1,2,-1
 500 -300 l 1,3,-1
 0 -300 l 1,4,-1
 0 700 l 1,5,-1
 300 700 l 1,0,-1
EndSplineSet
EndChar

StartChar: uni259A
Encoding: 286 9626 286
Width: 500
VWidth: 576
GlyphClass: 2
Flags: W
LayerCount: 2
Fore
SplineSet
200 -300 m 1,0,-1
 200 200 l 1,1,-1
 0 200 l 1,2,-1
 0 700 l 1,3,-1
 300 700 l 1,4,-1
 300 200 l 1,5,-1
 500 200 l 1,6,-1
 500 -300 l 1,7,-1
 200 -300 l 1,0,-1
EndSplineSet
EndChar

StartChar: uni259B
Encoding: 287 9627 287
Width: 500
VWidth: 576
GlyphClass: 2
Flags: W
LayerCount: 2
Fore
SplineSet
300 200 m 1,0,-1
 300 -300 l 1,1,-1
 0 -300 l 1,2,-1
 0 700 l 1,3,-1
 500 700 l 1,4,-1
 500 200 l 1,5,-1
 300 200 l 1,0,-1
EndSplineSet
EndChar

StartChar: uni259C
Encoding: 288 9628 288
Width: 500
VWidth: 576
GlyphClass: 2
Flags: W
LayerCount: 2
Fore
SplineSet
500 -300 m 1,0,-1
 200 -300 l 1,1,-1
 200 200 l 1,2,-1
 0 200 l 1,3,-1
 0 700 l 1,4,-1
 500 700 l 1,5,-1
 500 -300 l 1,0,-1
EndSplineSet
EndChar

StartChar: uni259D
Encoding: 289 9629 289
Width: 500
VWidth: 576
GlyphClass: 2
Flags: W
LayerCount: 2
Fore
SplineSet
500 200 m 1,0,-1
 200 200 l 1,1,-1
 200 700 l 1,2,-1
 500 700 l 1,3,-1
 500 200 l 1,0,-1
EndSplineSet
EndChar

StartChar: uni259E
Encoding: 290 9630 290
Width: 500
VWidth: 576
GlyphClass: 2
Flags: W
LayerCount: 2
Fore
SplineSet
300 200 m 1,0,-1
 300 -300 l 1,1,-1
 0 -300 l 1,2,-1
 0 200 l 1,3,-1
 200 200 l 1,4,-1
 200 700 l 1,5,-1
 500 700 l 1,6,-1
 500 200 l 1,7,-1
 300 200 l 1,0,-1
EndSplineSet
EndChar

StartChar: uni259F
Encoding: 291 9631 291
Width: 500
VWidth: 576
GlyphClass: 2
Flags: W
LayerCount: 2
Fore
SplineSet
300 200 m 1,0,-1
 500 200 l 1,1,-1
 500 -300 l 1,2,-1
 0 -300 l 1,3,-1
 0 700 l 1,4,-1
 300 700 l 1,5,-1
 300 200 l 1,0,-1
EndSplineSet
EndChar

StartChar: filledbox
Encoding: 292 9632 292
Width: 500
VWidth: 576
GlyphClass: 2
Flags: W
LayerCount: 2
Fore
SplineSet
0 400 m 1,0,-1
 400 400 l 1,1,-1
 400 0 l 1,2,-1
 0 0 l 1,3,-1
 0 400 l 1,0,-1
EndSplineSet
EndChar

StartChar: H22073
Encoding: 293 9633 293
Width: 500
VWidth: 576
GlyphClass: 2
Flags: W
LayerCount: 2
Fore
SplineSet
0 400 m 1,0,-1
 400 400 l 1,1,-1
 400 0 l 1,2,-1
 0 0 l 1,3,-1
 0 400 l 1,0,-1
300 100 m 1,4,-1
 300 300 l 1,5,-1
 100 300 l 1,6,-1
 100 100 l 1,7,-1
 300 100 l 1,4,-1
EndSplineSet
EndChar

StartChar: uni25A2
Encoding: 294 9634 294
Width: 500
VWidth: 576
GlyphClass: 2
Flags: W
LayerCount: 2
Fore
SplineSet
100 100 m 1,0,-1
 300 100 l 1,1,-1
 300 300 l 1,2,-1
 100 300 l 1,3,-1
 100 100 l 1,0,-1
100 100 m 1,4,-1
 0 100 l 1,5,-1
 0 300 l 1,6,-1
 100 300 l 1,7,-1
 100 400 l 1,8,-1
 300 400 l 1,9,-1
 300 300 l 1,10,-1
 400 300 l 1,11,-1
 400 100 l 1,12,-1
 300 100 l 1,13,-1
 300 0 l 1,14,-1
 100 0 l 1,15,-1
 100 100 l 1,4,-1
EndSplineSet
EndChar

